<?xml version="1.0" encoding="UTF-8"?>
<svg version="1.1" xmlns="http://www.w3.org/2000/svg" width="500" height="500">
<path d="M0 0 C165 0 330 0 500 0 C500 165 500 330 500 500 C335 500 170 500 0 500 C0 335 0 170 0 0 Z " fill="#FEFEFE" transform="translate(0,0)"/>
<path d="M0 0 C1.69689699 5.57201326 2.8805232 11.15276953 3.953125 16.875 C4.13379013 17.82459091 4.31445526 18.77418182 4.50059509 19.75254822 C4.88649596 21.78275735 5.27097291 23.81323757 5.65414429 25.84396362 C6.25594583 29.03149297 6.86232581 32.21812079 7.4699707 35.40454102 C9.099008 43.95232601 10.72151767 52.50128596 12.32196045 61.05447388 C16.88361456 85.41223279 22.73291935 109.13776561 30.02392578 132.82568359 C30.6487884 134.85781561 31.2675382 136.89184358 31.87841797 138.92822266 C38.12131793 159.66864514 47.510957 183.81573926 67.25390625 195.3125 C72.58360919 197.90971565 77.12282662 199.14346324 83 197.41015625 C90.00622955 194.53070206 93.30742962 189.0392188 96.15234375 182.25 C97.15857477 179.5160893 98.08734758 176.76635088 99 174 C99.57532171 172.43453235 100.15774685 170.87164086 100.75 169.3125 C101.36875 167.6728125 101.36875 167.6728125 102 166 C102.66 166 103.32 166 104 166 C104 153.79 104 141.58 104 129 C98.39 129.33 92.78 129.66 87 130 C83.15754055 130.07197356 79.33646048 130.11976389 75.49609375 130.09765625 C74.52132584 130.0962413 73.54655792 130.09482635 72.54225159 130.09336853 C69.50729959 130.08788617 66.4724287 130.07535884 63.4375 130.0625 C61.34700629 130.0574697 59.2565114 130.05290953 57.16601562 130.04882812 C52.11064707 130.03795581 47.05533715 130.02077755 42 130 C41.38647461 128.17407227 41.38647461 128.17407227 41 126 C42.43737997 123.79601738 43.8650013 121.92600664 45.5625 119.9375 C46.58729908 118.68446544 47.60929357 117.42913343 48.62890625 116.171875 C49.17691895 115.49962891 49.72493164 114.82738281 50.28955078 114.13476562 C70.71754298 88.63913847 90.68997693 58.88056524 99.9362793 27.24047852 C100.9544219 23.98137047 101.73468205 22.21285154 104.4296875 20.05078125 C107.72755742 18.70256391 110.47338584 18.79255211 114 19 C113.42881992 25.36206736 111.40790125 30.83460747 109.0625 36.75 C108.46187744 38.26811279 108.46187744 38.26811279 107.84912109 39.81689453 C101.59968699 55.26479775 93.50354557 69.35340811 84.22705078 83.16162109 C83.16177042 84.75763404 82.12332042 86.3714926 81.08984375 87.98828125 C74.85757807 97.67226331 67.71195754 106.69724655 60.68237305 115.80859375 C59.10668055 117.86104126 57.55252219 119.92997041 56 122 C71.51 122 87.02 122 103 122 C102.80225715 111.27414826 102.80225715 111.27414826 102.54956055 100.54956055 C102.53495579 99.20363341 102.52221508 97.8576842 102.51171875 96.51171875 C102.473349 95.46594666 102.473349 95.46594666 102.4342041 94.39904785 C102.43237305 92.36987305 102.43237305 92.36987305 103 89 C105.89532876 86.56935739 107.47617309 86.04029438 111.25 85.75 C114 86 114 86 115 87 C115.08851529 89.59359322 115.11525945 92.16039691 115.09765625 94.75390625 C115.09553383 95.91707619 115.09553383 95.91707619 115.09336853 97.10374451 C115.08775345 99.59003494 115.07519846 102.0762366 115.0625 104.5625 C115.05748694 106.24413933 115.0529237 107.92578006 115.04882812 109.60742188 C115.03862832 113.73834329 115.01905605 117.86907182 115 122 C125.23 122 135.46 122 146 122 C145 126 145 126 142 128 C139.27270508 128.22705078 139.27270508 128.22705078 136.01953125 128.1953125 C134.27446289 128.18564453 134.27446289 128.18564453 132.49414062 128.17578125 C131.27919922 128.15902344 130.06425781 128.14226562 128.8125 128.125 C127.58595703 128.11597656 126.35941406 128.10695312 125.09570312 128.09765625 C122.06360705 128.07406017 119.03190062 128.04113841 116 128 C116.01571045 128.94319092 116.0314209 129.88638184 116.04760742 130.8581543 C116.09886007 134.37123148 116.13640991 137.88390898 116.16479492 141.3972168 C116.17984353 142.91518438 116.20028738 144.43310876 116.22631836 145.95092773 C116.26287653 148.13796677 116.27976523 150.32442896 116.29296875 152.51171875 C116.31653442 154.48338013 116.31653442 154.48338013 116.34057617 156.49487305 C115.98318095 160.17309761 115.15411544 162.04585553 113 165 C113.33 165.33 113.66 165.66 114 166 C113.47615089 179.62007683 106.35856182 192.06329334 96.75 201.4375 C90.03010287 206.70651025 81.12791433 208.76125288 72.71484375 208.375 C59.06544825 206.48961587 49.01296053 198.19373866 40.91625977 187.53735352 C33.10218143 176.85376964 27.66931224 165.49879446 22.76342773 153.25805664 C18.38430485 142.6605246 11.97915117 133.45763218 1.1875 128.78125 C-5.93418198 126.1295599 -11.88127108 124.83619493 -19.5 124.875 C-20.25925781 124.87113281 -21.01851563 124.86726563 -21.80078125 124.86328125 C-27.01010972 124.78714331 -27.01010972 124.78714331 -32 126 C-33.27681016 127.74508674 -33.27681016 127.74508674 -34.1484375 129.97265625 C-34.51453125 130.79056641 -34.880625 131.60847656 -35.2578125 132.45117188 C-35.81082031 133.7437793 -35.81082031 133.7437793 -36.375 135.0625 C-41.77147731 147.54185377 -49.96834845 159.99861888 -63.07324219 165.38037109 C-71.88502531 168.21416551 -82.16980158 166.47779719 -90.296875 162.55859375 C-101.32485853 156.19997319 -101.32485853 156.19997319 -102.80078125 151.390625 C-103 149 -103 149 -102 147.25 C-98.9570399 145.34814994 -96.58057678 145.14278374 -93 145 C-90.34124515 146.34101312 -88.24091851 147.58355955 -85.875 149.3125 C-79.59498845 153.71940615 -74.91677514 156.81897674 -67 156 C-55.57866349 151.30909393 -50.58389525 139.44868211 -46.06347656 128.67919922 C-42.2072444 118.96425621 -39.09120593 108.97879913 -36 99 C-35.6596875 97.90316895 -35.319375 96.80633789 -34.96875 95.67626953 C-27.69575899 71.92185699 -21.95925566 47.59810114 -17.2734375 23.203125 C-17.07486649 22.18381142 -17.07486649 22.18381142 -16.87228394 21.14390564 C-16.25937085 17.99323262 -15.66767889 14.84176371 -15.11474609 11.67993164 C-13.59644118 3.69148384 -13.59644118 3.69148384 -10.59765625 0.21484375 C-6.55428824 -1.67611482 -4.30266774 -0.87511886 0 0 Z " fill="#080808" transform="translate(241,115)"/>
<path d="M0 0 C-0.57118008 6.36206736 -2.59209875 11.83460747 -4.9375 17.75 C-5.33791504 18.7620752 -5.73833008 19.77415039 -6.15087891 20.81689453 C-12.40031301 36.26479775 -20.49645443 50.35340811 -29.77294922 64.16162109 C-30.83822958 65.75763404 -31.87667958 67.3714926 -32.91015625 68.98828125 C-39.14242193 78.67226331 -46.28804246 87.69724655 -53.31762695 96.80859375 C-54.89331945 98.86104126 -56.44747781 100.92997041 -58 103 C-42.49 103 -26.98 103 -11 103 C-11.19774285 92.27414826 -11.19774285 92.27414826 -11.45043945 81.54956055 C-11.46504421 80.20363341 -11.47778492 78.8576842 -11.48828125 77.51171875 C-11.526651 76.46594666 -11.526651 76.46594666 -11.5657959 75.39904785 C-11.56762695 73.36987305 -11.56762695 73.36987305 -11 70 C-8.10467124 67.56935739 -6.52382691 67.04029438 -2.75 66.75 C0 67 0 67 1 68 C1.08851529 70.59359322 1.11525945 73.16039691 1.09765625 75.75390625 C1.0962413 76.52935287 1.09482635 77.3047995 1.09336853 78.10374451 C1.08775345 80.59003494 1.07519846 83.0762366 1.0625 85.5625 C1.05748694 87.24413933 1.0529237 88.92578006 1.04882812 90.60742188 C1.03862832 94.73834329 1.01905605 98.86907182 1 103 C11.23 103 21.46 103 32 103 C31 107 31 107 28 109 C25.27270508 109.22705078 25.27270508 109.22705078 22.01953125 109.1953125 C20.85615234 109.18886719 19.69277344 109.18242187 18.49414062 109.17578125 C17.27919922 109.15902344 16.06425781 109.14226562 14.8125 109.125 C13.58595703 109.11597656 12.35941406 109.10695313 11.09570312 109.09765625 C8.06360705 109.07406017 5.03190062 109.04113841 2 109 C2.01571045 109.94319092 2.0314209 110.88638184 2.04760742 111.8581543 C2.09886007 115.37123148 2.13640991 118.88390898 2.16479492 122.3972168 C2.17984353 123.91518438 2.20028738 125.43310876 2.22631836 126.95092773 C2.26287653 129.13796677 2.27976523 131.32442896 2.29296875 133.51171875 C2.3086792 134.82615967 2.32438965 136.14060059 2.34057617 137.49487305 C1.98318095 141.17309761 1.15411544 143.04585553 -1 146 C-0.67 146.33 -0.34 146.66 0 147 C-0.39414915 157.2478778 -4.56726715 167.09692821 -11 175 C-15.41889613 173.64978174 -17.34345343 171.73884332 -20 168 C-19.61908203 167.09121094 -19.61908203 167.09121094 -19.23046875 166.1640625 C-17.0334621 160.81554443 -15.2178046 155.54417855 -13.80859375 149.93359375 C-13.54175781 149.29550781 -13.27492188 148.65742188 -13 148 C-12.01 147.67 -11.02 147.34 -10 147 C-10 134.79 -10 122.58 -10 110 C-18.415 110.495 -18.415 110.495 -27 111 C-30.84245945 111.07197356 -34.66353952 111.11976389 -38.50390625 111.09765625 C-39.47867416 111.0962413 -40.45344208 111.09482635 -41.45774841 111.09336853 C-44.49270041 111.08788617 -47.5275713 111.07535884 -50.5625 111.0625 C-52.65299371 111.0574697 -54.7434886 111.05290953 -56.83398438 111.04882812 C-61.88935293 111.03795581 -66.94466285 111.02077755 -72 111 C-72.61352539 109.17407227 -72.61352539 109.17407227 -73 107 C-71.56262003 104.79601738 -70.1349987 102.92600664 -68.4375 100.9375 C-67.41270092 99.68446544 -66.39070643 98.42913343 -65.37109375 97.171875 C-64.82308105 96.49962891 -64.27506836 95.82738281 -63.71044922 95.13476562 C-43.28245702 69.63913847 -23.31002307 39.88056524 -14.0637207 8.24047852 C-13.0455781 4.98137047 -12.26531795 3.21285154 -9.5703125 1.05078125 C-6.27244258 -0.29743609 -3.52661416 -0.20744789 0 0 Z " fill="#0A0A0A" transform="translate(355,134)"/>
<path d="M0 0 C2.27646301 3.41469452 2.64710557 5.71493001 3.33203125 9.74609375 C3.44870651 10.4201828 3.56538177 11.09427185 3.68559265 11.78878784 C3.93646745 13.24346546 4.18405538 14.69871295 4.42871094 16.15444946 C4.81702305 18.46440634 5.21398036 20.77272949 5.61328125 23.08081055 C6.15636772 26.22423131 6.69624515 29.36817185 7.23291016 32.51269531 C10.5829014 52.13086971 14.26586592 71.63739662 18.41503906 91.10107422 C19.011785 94.05840362 19.52083763 97.02155769 20 100 C19.23921143 99.79141357 18.47842285 99.58282715 17.69458008 99.36791992 C8.9658428 97.14377368 0.67225454 96.47156242 -8.3125 96.3125 C-9.65042142 96.27921029 -10.9883133 96.24471063 -12.32617188 96.20898438 C-15.55069638 96.1274982 -18.77498285 96.05803043 -22 96 C-21.44583068 90.6013182 -20.46708674 85.81901016 -18.8125 80.625 C-15.43071576 69.5684546 -12.96489482 58.3102387 -10.45233154 47.03051758 C-9.96402628 44.83851386 -9.47449639 42.64678561 -8.98486328 40.45507812 C-6.91943711 31.20515475 -4.86519892 21.95278296 -2.81835938 12.69873047 C-1.88167364 8.46520156 -0.94160896 4.23243618 0 0 Z " fill="#F9F9F9" transform="translate(234,139)"/>
<path d="M0 0 C3.79038647 0.62230226 5.96631929 1.23205156 8.92578125 3.64453125 C9.52165702 7.73053653 9.24145509 9.1710205 6.92578125 12.64453125 C7.91578125 12.97453125 8.90578125 13.30453125 9.92578125 13.64453125 C11.35638253 16.50573381 11.31270706 18.4846371 10.92578125 21.64453125 C8.50587678 24.1478807 6.57760846 24.60333431 3.14453125 24.8203125 C0.39760593 24.83093206 -2.33062206 24.77426349 -5.07421875 24.64453125 C-5.40421875 23.32453125 -5.73421875 22.00453125 -6.07421875 20.64453125 C-8.05421875 21.63453125 -8.05421875 21.63453125 -10.07421875 22.64453125 C-10.40421875 22.31453125 -10.73421875 21.98453125 -11.07421875 21.64453125 C-11.40421875 22.30453125 -11.73421875 22.96453125 -12.07421875 23.64453125 C-11.41421875 23.97453125 -10.75421875 24.30453125 -10.07421875 24.64453125 C-12.05421875 24.64453125 -14.03421875 24.64453125 -16.07421875 24.64453125 C-15.74421875 22.00453125 -15.41421875 19.36453125 -15.07421875 16.64453125 C-18.37421875 16.64453125 -21.67421875 16.64453125 -25.07421875 16.64453125 C-25.07421875 15.98453125 -25.07421875 15.32453125 -25.07421875 14.64453125 C-24.41421875 14.64453125 -23.75421875 14.64453125 -23.07421875 14.64453125 C-22.67396484 13.81695312 -22.67396484 13.81695312 -22.265625 12.97265625 C-16.64839507 1.99603645 -12.0174983 -0.71372199 0 0 Z " fill="#FBFBFB" transform="translate(176.07421875,301.35546875)"/>
<path d="M0 0 C3.54103223 3.0021795 5.74201336 5.108098 6.375 9.75 C5.8528401 14.2753858 4.15770622 15.7671103 1 19 C-1.86608129 20.43304064 -3.81300783 20.30644155 -7 20 C-12.57894737 16.84210526 -12.57894737 16.84210526 -14 14 C-14.55112923 9.40123316 -14.61753151 6.02212113 -12.1875 2 C-8.20752169 -1.63883731 -5.04222675 -1.21708922 0 0 Z " fill="#AD9352" transform="translate(161,213)"/>
<path d="M0 0 C4.31203258 -0.25364898 7.96884158 -0.37879289 12.0625 1.125 C14 3 14 3 14.4375 6 C14 9 14 9 12 12 C12.99 12.33 13.98 12.66 15 13 C16.43060128 15.86120256 16.38692581 17.84010585 16 21 C13.58009553 23.50334945 11.65182721 23.95880306 8.21875 24.17578125 C5.47182468 24.18640081 2.74359669 24.12973224 0 24 C0 23.34 0 22.68 0 22 C0.66 22 1.32 22 2 22 C1.86145912 18.70798357 1.71292976 15.41649291 1.5625 12.125 C1.52318359 11.18785156 1.48386719 10.25070312 1.44335938 9.28515625 C1.40146484 8.38925781 1.35957031 7.49335938 1.31640625 6.5703125 C1.26141968 5.32918701 1.26141968 5.32918701 1.20532227 4.06298828 C1.11761673 1.93820571 1.11761673 1.93820571 0 0 Z " fill="#8C8C8C" transform="translate(171,302)"/>
<path d="M0 0 C2.62144728 2.30804885 3.78384259 4.427267 5.04296875 7.66796875 C5.39423828 8.56064453 5.74550781 9.45332031 6.10742188 10.37304688 C6.64206055 11.76620117 6.64206055 11.76620117 7.1875 13.1875 C7.55552734 14.12787109 7.92355469 15.06824219 8.30273438 16.03710938 C9.2088805 18.35543127 10.10765118 20.67634016 11 23 C9.68 23 8.36 23 7 23 C6.34 20.36 5.68 17.72 5 15 C0.545 15.495 0.545 15.495 -4 16 C-4.66 18.31 -5.32 20.62 -6 23 C-7.65 23 -9.3 23 -11 23 C-10.12601562 21.78957031 -10.12601562 21.78957031 -9.234375 20.5546875 C-6.63372979 16.65371968 -4.96605613 12.47037818 -3.25 8.125 C-2.93417969 7.34125 -2.61835938 6.5575 -2.29296875 5.75 C-1.52260172 3.83575465 -0.76044753 1.91820754 0 0 Z " fill="#242424" transform="translate(137,303)"/>
<path d="M0 0 C0.33 0 0.66 0 1 0 C1 4.62 1 9.24 1 14 C1.99 14 2.98 14 4 14 C4 14.66 4 15.32 4 16 C3.01 16 2.02 16 1 16 C1 18.31 1 20.62 1 23 C1.66 23.33 2.32 23.66 3 24 C1.02 24 -0.96 24 -3 24 C-2.67 21.36 -2.34 18.72 -2 16 C-5.3 16 -8.6 16 -12 16 C-12 15.34 -12 14.68 -12 14 C-11.34 14 -10.68 14 -10 14 C-9.75378906 13.44828125 -9.50757813 12.8965625 -9.25390625 12.328125 C-7.75017961 9.53615902 -5.92621901 7.21875464 -3.9375 4.75 C-3.22464844 3.85796875 -2.51179687 2.9659375 -1.77734375 2.046875 C-0.89755859 1.03367187 -0.89755859 1.03367187 0 0 Z " fill="#414141" transform="translate(163,302)"/>
<path d="M0 0 C0.99 0.66 1.98 1.32 3 2 C3.37331109 5.42201828 3.63763183 7.90185629 1.875 10.9375 C-0.93512264 12.52990283 -2.82764724 12.45319325 -6 12 C-8.83171242 9.98799381 -9.84987863 8.87928233 -10.4375 5.4375 C-10 3 -10 3 -8.9375 1.1875 C-5.93702602 -0.65150018 -3.43518387 -0.30671285 0 0 Z " fill="#202020" transform="translate(288,343)"/>
<path d="M0 0 C2 1.0625 2 1.0625 3 3 C2.875 6.5625 2.875 6.5625 2 10 C-1.47042703 12.31361802 -2.91834173 12.51020728 -7 12 C-9.35210784 9.88310295 -9.91810953 8.55958485 -10.375 5.4375 C-10 3 -10 3 -8.9375 1.1875 C-5.90624457 -0.67036623 -3.46577141 -0.37133265 0 0 Z " fill="#222222" transform="translate(149,343)"/>
<path d="M0 0 C6.00863999 5.15026284 11.45697247 10.38104059 17 16 C17 11.05 17 6.1 17 1 C17.99 1.33 18.98 1.66 20 2 C19.67 7.94 19.34 13.88 19 20 C14.9645718 17.9822859 12.43272713 15.63012686 9.375 12.4375 C6.03597098 8.77285984 6.03597098 8.77285984 2 6 C2 10.62 2 15.24 2 20 C2.66 20.33 3.32 20.66 4 21 C2.35 21 0.7 21 -1 21 C-0.67 14.07 -0.34 7.14 0 0 Z " fill="#282828" transform="translate(192,305)"/>
<path d="M0 0 C6.6 0 13.2 0 20 0 C19.67 1.32 19.34 2.64 19 4 C19 3.34 19 2.68 19 2 C16.36 2 13.72 2 11 2 C11.33 9.26 11.66 16.52 12 24 C10.68 24 9.36 24 8 24 C8 16.74 8 9.48 8 2 C5.36 2 2.72 2 0 2 C0 1.34 0 0.68 0 0 Z " fill="#535353" transform="translate(255,302)"/>
<path d="M0 0 C6.0546875 -0.1953125 6.0546875 -0.1953125 8 0 C8.66 0.66 9.32 1.32 10 2 C9.94140625 3.875 9.94140625 3.875 9.5625 6 C8.94303456 9.10060539 8.94303456 9.10060539 10 12 C8.0625 11.625 8.0625 11.625 6 11 C5.67 10.34 5.34 9.68 5 9 C4.01 8.67 3.02 8.34 2 8 C2 9.32 2 10.64 2 12 C1.34 12 0.68 12 0 12 C0 8.04 0 4.08 0 0 Z " fill="#343434" transform="translate(224,343)"/>
<path d="M0 0 C0.66 0 1.32 0 2 0 C2.99 2.31 3.98 4.62 5 7 C5.66 4.69 6.32 2.38 7 0 C8.875 0.125 8.875 0.125 11 1 C12.25 4.0625 12.25 4.0625 13 7 C13.66 4.69 14.32 2.38 15 0 C15.99 0.33 16.98 0.66 18 1 C17.60446947 2.6510403 17.18286103 4.2958515 16.75 5.9375 C16.51796875 6.85402344 16.2859375 7.77054687 16.046875 8.71484375 C15.70140625 9.46894531 15.3559375 10.22304688 15 11 C13.68 11.33 12.36 11.66 11 12 C10.34 9.36 9.68 6.72 9 4 C8.01 6.64 7.02 9.28 6 12 C5.01 12 4.02 12 3 12 C2.01 8.04 1.02 4.08 0 0 Z " fill="#2C2C2C" transform="translate(184,343)"/>
<path d="M0 0 C4 1 4 1 5.75 3.5625 C6.1625 4.366875 6.575 5.17125 7 6 C7.99 4.02 8.98 2.04 10 0 C10.99 0 11.98 0 13 0 C13 3.96 13 7.92 13 12 C12.34 12 11.68 12 11 12 C10.67 10.02 10.34 8.04 10 6 C8.515 8.475 8.515 8.475 7 11 C4.2160817 9.60804085 4.02101003 7.84424221 3 5 C2.67 7.31 2.34 9.62 2 12 C1.34 12 0.68 12 0 12 C0 8.04 0 4.08 0 0 Z " fill="#383838" transform="translate(297,343)"/>
<path d="M0 0 C2.625 0.25 2.625 0.25 4.5 1.375 C5.625 3.25 5.625 3.25 5.4375 6.3125 C4.625 9.25 4.625 9.25 2.625 11.25 C-0.5 11.375 -0.5 11.375 -3.375 11.25 C-3.40188151 9.60425434 -3.42134123 7.95838587 -3.4375 6.3125 C-3.44910156 5.39597656 -3.46070313 4.47945313 -3.47265625 3.53515625 C-3.33824953 0.39003899 -3.12660331 0.32911614 0 0 Z " fill="#EFEFEF" transform="translate(179.375,313.75)"/>
<path d="M0 0 C0.66 0.66 1.32 1.32 2 2 C1.625 4.125 1.625 4.125 1 6 C1.33 5.67 1.66 5.34 2 5 C2.33 5.66 2.66 6.32 3 7 C5.52733235 7.65555119 5.52733235 7.65555119 8 8 C8.66 6.02 9.32 4.04 10 2 C11.32789969 4.1871289 12.04752686 5.47720456 11.8125 8.0625 C10.83861395 10.38484365 10.05703817 11.53068702 8 13 C4.1737606 13.50345255 1.46969834 12.58614781 -2 11 C-2.28571429 3.57142857 -2.28571429 3.57142857 0 0 Z " fill="#AB934C" transform="translate(151,218)"/>
<path d="M0 0 C6.0546875 -0.1953125 6.0546875 -0.1953125 8 0 C8.66 0.66 9.32 1.32 10 2 C9.44444444 6.55555556 9.44444444 6.55555556 8 8 C6.00041636 8.04080783 3.99954746 8.04254356 2 8 C2 9.32 2 10.64 2 12 C1.34 12 0.68 12 0 12 C0 8.04 0 4.08 0 0 Z " fill="#181818" transform="translate(317,343)"/>
<path d="M0 0 C2.66264297 2.54687588 3.86481227 4.00862329 4.375 7.75 C3.8528401 12.2753858 2.15770622 13.7671103 -1 17 C-3.82001327 18.41000664 -5.87007255 18.24548451 -9 18 C-11.875 16.5 -11.875 16.5 -14 15 C-12.0625 14.4375 -12.0625 14.4375 -10 14 C-9.67 14.33 -9.34 14.66 -9 15 C-6.30349608 15.28384252 -4.64681091 15.45042977 -2.37890625 13.87109375 C-0.43213188 11.22943675 -0.48705645 9.05924994 -0.3125 5.8125 C-0.24675781 4.72582031 -0.18101562 3.63914063 -0.11328125 2.51953125 C-0.07589844 1.68808594 -0.03851563 0.85664063 0 0 Z " fill="#A79567" transform="translate(163,215)"/>
<path d="M0 0 C4 1 4 1 6.25 4.0625 C7.11625 5.5165625 7.11625 5.5165625 8 7 C8.33 4.69 8.66 2.38 9 0 C9.66 0 10.32 0 11 0 C11 3.96 11 7.92 11 12 C10.01 12 9.02 12 8 12 C6.61328125 10.46875 6.61328125 10.46875 5.3125 8.5 C4.87550781 7.8503125 4.43851562 7.200625 3.98828125 6.53125 C3.66214844 6.0259375 3.33601563 5.520625 3 5 C2.67 7.31 2.34 9.62 2 12 C1.34 12 0.68 12 0 12 C0 8.04 0 4.08 0 0 Z " fill="#1C1C1C" transform="translate(349,343)"/>
<path d="M0 0 C1.32 0.33 2.64 0.66 4 1 C5.265625 3.50390625 5.265625 3.50390625 6.25 6.5625 C6.58515625 7.57441406 6.9203125 8.58632813 7.265625 9.62890625 C7.62914062 10.80259766 7.62914062 10.80259766 8 12 C7.01 12 6.02 12 5 12 C5 11.01 5 10.02 5 9 C2.69 9 0.38 9 -2 9 C-2.33 9.99 -2.66 10.98 -3 12 C-3.66 11.67 -4.32 11.34 -5 11 C-3.35 7.37 -1.7 3.74 0 0 Z " fill="#1F1F1F" transform="translate(336,343)"/>
<path d="M0 0 C0.99 0 1.98 0 3 0 C3 7.26 3 14.52 3 22 C3.66 22.33 4.32 22.66 5 23 C2.69 23 0.38 23 -2 23 C-1.34 22.67 -0.68 22.34 0 22 C0 14.74 0 7.48 0 0 Z " fill="#424242" transform="translate(247,303)"/>
<path d="M0 0 C0.99 0 1.98 0 3 0 C3.67354499 1.43429001 4.33859701 2.87257057 5 4.3125 C5.556875 5.51326172 5.556875 5.51326172 6.125 6.73828125 C7 9 7 9 7 12 C6.34 12 5.68 12 5 12 C4.67 11.34 4.34 10.68 4 10 C2.02 10 0.04 10 -2 10 C-2.33 10.66 -2.66 11.32 -3 12 C-3.66 12 -4.32 12 -5 12 C-4.54738642 10.56068883 -4.08767021 9.12361001 -3.625 7.6875 C-3.24214844 6.48673828 -3.24214844 6.48673828 -2.8515625 5.26171875 C-2 3 -2 3 0 0 Z " fill="#606060" transform="translate(211,343)"/>
<path d="M0 0 C2.5625 0.1875 2.5625 0.1875 4.5625 2.1875 C4.00694444 6.74305556 4.00694444 6.74305556 2.5625 8.1875 C0.125 8.375 0.125 8.375 -2.4375 8.1875 C-3.0975 7.5275 -3.7575 6.8675 -4.4375 6.1875 C-3.71780303 0.28598485 -3.71780303 0.28598485 0 0 Z " fill="#EFEFEF" transform="translate(145.4375,344.8125)"/>
<path d="M0 0 C1.134375 0.020625 2.26875 0.04125 3.4375 0.0625 C3.4375 0.7225 3.4375 1.3825 3.4375 2.0625 C1.4575 2.0625 -0.5225 2.0625 -2.5625 2.0625 C-1.05586217 5.07577566 1.46916411 5.67306618 4.4375 7.0625 C4.1075 8.3825 3.7775 9.7025 3.4375 11.0625 C-3.3125 12.1875 -3.3125 12.1875 -5.5625 11.0625 C-5.5625 10.4025 -5.5625 9.7425 -5.5625 9.0625 C-3.2525 9.3925 -0.9425 9.7225 1.4375 10.0625 C1.4375 9.0725 1.4375 8.0825 1.4375 7.0625 C-0.2125 6.7325 -1.8625 6.4025 -3.5625 6.0625 C-3.94468767 4.40635343 -4.27645102 2.73792976 -4.5625 1.0625 C-3.5625 0.0625 -3.5625 0.0625 0 0 Z " fill="#2B2B2B" transform="translate(129.5625,342.9375)"/>
<path d="M0 0 C3 0.125 3 0.125 4 1.125 C4.1875 3.5625 4.1875 3.5625 4 6.125 C2 8.125 2 8.125 -0.5625 8.3125 C-3 8.125 -3 8.125 -4 7.125 C-4.125 4.125 -4.125 4.125 -4 1.125 C-3 0.125 -3 0.125 0 0 Z " fill="#F5F5F5" transform="translate(285,344.875)"/>
<path d="M0 0 C2.97 0 5.94 0 9 0 C9 0.33 9 0.66 9 1 C6.69 1 4.38 1 2 1 C2 2.32 2 3.64 2 5 C3.98 5 5.96 5 8 5 C8 5.66 8 6.32 8 7 C6.02 7 4.04 7 2 7 C2 7.99 2 8.98 2 10 C4.31 10 6.62 10 9 10 C9 10.66 9 11.32 9 12 C6.03 12 3.06 12 0 12 C0 8.04 0 4.08 0 0 Z " fill="#171717" transform="translate(240,343)"/>
<path d="M0 0 C4.875 0.875 4.875 0.875 6 2 C6.26293056 6.03160191 6.29404844 7.55892734 4 11 C4.99 11.33 5.98 11.66 7 12 C8.38125018 14.76250036 8.19079306 16.94731099 8 20 C7.34 20.66 6.68 21.32 6 22 C5.01 21.67 4.02 21.34 3 21 C3.66 20.01 4.32 19.02 5 18 C4.99077298 15.45286596 4.99077298 15.45286596 4 13 C2.0431712 11.17662247 2.0431712 11.17662247 0 10 C0.515625 9.608125 1.03125 9.21625 1.5625 8.8125 C3.29423311 7.04901603 3.29423311 7.04901603 2.8125 4.4375 C2.15372967 1.85558728 2.15372967 1.85558728 0 0 Z " fill="#242424" transform="translate(179,303)"/>
<path d="M0 0 C1.670625 0.061875 1.670625 0.061875 3.375 0.125 C3.375 1.115 3.375 2.105 3.375 3.125 C1.395 3.125 -0.585 3.125 -2.625 3.125 C-2.955 5.105 -3.285 7.085 -3.625 9.125 C-0.985 9.125 1.655 9.125 4.375 9.125 C4.375 9.785 4.375 10.445 4.375 11.125 C-1.99926409 12.44796047 -1.99926409 12.44796047 -4.5625 11.125 C-6.18692132 8.06726576 -5.93339752 5.51737275 -5.625 2.125 C-3.625 0.125 -3.625 0.125 0 0 Z " fill="#1E1E1E" transform="translate(268.625,342.875)"/>
<path d="M0 0 C0.33 0 0.66 0 1 0 C1 3.3 1 6.6 1 10 C-4.18831313 13.27682935 -9.01019307 13.79382983 -15 13 C-15.99 12.34 -16.98 11.68 -18 11 C-17.67 10.34 -17.34 9.68 -17 9 C-16.195625 9.495 -16.195625 9.495 -15.375 10 C-12.31258861 11.28943638 -10.30060561 11.40415579 -7 11 C-3.15976916 8.81805066 -2.16037451 7.45821287 -0.6875 3.25 C-0.460625 2.1775 -0.23375 1.105 0 0 Z " fill="#F8F3DF" transform="translate(167,221)"/>
<path d="M0 0 C2.64 0 5.28 0 8 0 C8 0.66 8 1.32 8 2 C6.02 2 4.04 2 2 2 C2 2.99 2 3.98 2 5 C3.65 5 5.3 5 7 5 C7 5.66 7 6.32 7 7 C5.35 7 3.7 7 2 7 C2 8.65 2 10.3 2 12 C1.34 12 0.68 12 0 12 C0 8.04 0 4.08 0 0 Z " fill="#272727" transform="translate(158,343)"/>
<path d="M0 0 C2.83374881 3.20336822 3.5205537 5.78087253 4 10 C1.69 10 -0.62 10 -3 10 C-2.49287967 6.28111761 -1.88391785 3.26545761 0 0 Z " fill="#E9E9E9" transform="translate(137,307)"/>
<path d="M0 0 C0.99 0.33 1.98 0.66 3 1 C3.6875 3.0625 3.6875 3.0625 4 5 C4.66 5 5.32 5 6 5 C6.66 3.35 7.32 1.7 8 0 C8.66 0.33 9.32 0.66 10 1 C9.525625 1.886875 9.05125 2.77375 8.5625 3.6875 C7.20262851 6.57042756 6.45939614 8.87610623 6 12 C5.34 12 4.68 12 4 12 C2.66666667 8 1.33333333 4 0 0 Z " fill="#1C1C1C" transform="translate(366,343)"/>
<path d="M0 0 C0.66 0.66 1.32 1.32 2 2 C1.73445312 2.64066406 1.46890625 3.28132813 1.1953125 3.94140625 C-0.83545498 8.9145631 -2.64392834 13.80172531 -4 19 C-5.65 19 -7.3 19 -9 19 C-8.443125 18.278125 -7.88625 17.55625 -7.3125 16.8125 C-3.87292231 11.72093876 -2.07766877 5.73913422 0 0 Z " fill="#323232" transform="translate(135,307)"/>
<path d="M0 0 C0.66 0.66 1.32 1.32 2 2 C-1 3 -1 3 -3.8125 2.9375 C-7.24763004 3.00485549 -9.80641135 3.7833948 -13 5 C-12.06788763 2.66971908 -11.30996602 1.24108468 -9.3125 -0.3125 C-5.96517903 -1.30764948 -3.371157 -0.749146 0 0 Z " fill="#AA9B6B" transform="translate(161,213)"/>
<path d="M0 0 C1.32 0.33 2.64 0.66 4 1 C4.33 2.98 4.66 4.96 5 7 C4.34 6.34 3.68 5.68 3 5 C2.67 7.31 2.34 9.62 2 12 C1.34 12 0.68 12 0 12 C0 8.04 0 4.08 0 0 Z " fill="#191919" transform="translate(297,343)"/>
<path d="M0 0 C2.89932357 2.39509338 3.50168276 4.31245243 4 8 C3.34 8 2.68 8 2 8 C1.67 7.34 1.34 6.68 1 6 C-0.98 6 -2.96 6 -5 6 C-5.33 6.66 -5.66 7.32 -6 8 C-6.66 8 -7.32 8 -8 8 C-7.67 6.35 -7.34 4.7 -7 3 C-4.69 3.33 -2.38 3.66 0 4 C0 2.68 0 1.36 0 0 Z " fill="#1A1A1A" transform="translate(214,347)"/>
<path d="M0 0 C0.33 0 0.66 0 1 0 C1 2.64 1 5.28 1 8 C-1.31 8 -3.62 8 -6 8 C-2.25 2.25 -2.25 2.25 0 0 Z " fill="#EDEDED" transform="translate(160,308)"/>
<path d="M0 0 C0.66 1.32 1.32 2.64 2 4 C2.99 4 3.98 4 5 4 C5.66 5.98 6.32 7.96 7 10 C6.01 10 5.02 10 4 10 C3.67 9.01 3.34 8.02 3 7 C1.35 6.67 -0.3 6.34 -2 6 C-1.34 4.02 -0.68 2.04 0 0 Z " fill="#737373" transform="translate(337,345)"/>
<path d="M0 0 C0.66 0 1.32 0 2 0 C2 3.96 2 7.92 2 12 C1.01 12 0.02 12 -1 12 C-1.33 10.68 -1.66 9.36 -2 8 C-1.34 8 -0.68 8 0 8 C0 5.36 0 2.72 0 0 Z " fill="#151515" transform="translate(358,343)"/>
<path d="M0 0 C1.74609375 1.51953125 1.74609375 1.51953125 3 3 C2.40832031 2.89300781 1.81664062 2.78601563 1.20703125 2.67578125 C-3.98097147 1.86192024 -3.98097147 1.86192024 -8.9375 3.3125 C-11.05078836 4.98445254 -11.05078836 4.98445254 -13 7 C-12.51963048 2.43648961 -12.51963048 2.43648961 -10.4375 0.6875 C-6.76528025 -0.34825429 -3.82713041 -0.30374051 0 0 Z " fill="#F4EFD7" transform="translate(160,211)"/>
<path d="M0 0 C2.97 0.495 2.97 0.495 6 1 C6 2.32 6 3.64 6 5 C4.02 5 2.04 5 0 5 C0 3.35 0 1.7 0 0 Z " fill="#D8D8D8" transform="translate(319,344)"/>
<path d="M0 0 C0.69867188 0.08378906 1.39734375 0.16757813 2.1171875 0.25390625 C3.02726563 0.35574219 3.93734375 0.45757812 4.875 0.5625 C5.77992188 0.66691406 6.68484375 0.77132812 7.6171875 0.87890625 C10.01653057 1.19674852 10.01653057 1.19674852 12 0 C12.66 0.66 13.32 1.32 14 2 C10.4913604 4.33909307 9.12910567 4.41291057 5 4 C2.125 2.5625 2.125 2.5625 0 1 C0 0.67 0 0.34 0 0 Z " fill="#B0A074" transform="translate(149,229)"/>
<path d="M0 0 C1.134375 0.020625 2.26875 0.04125 3.4375 0.0625 C3.4375 0.7225 3.4375 1.3825 3.4375 2.0625 C1.4575 2.0625 -0.5225 2.0625 -2.5625 2.0625 C-1.60384491 4.39325929 -1.60384491 4.39325929 1.4375 6.0625 C-0.2125 6.0625 -1.8625 6.0625 -3.5625 6.0625 C-3.94468767 4.40635343 -4.27645102 2.73792976 -4.5625 1.0625 C-3.5625 0.0625 -3.5625 0.0625 0 0 Z " fill="#1D1D1D" transform="translate(129.5625,342.9375)"/>
<path d="M0 0 C0.99 0.33 1.98 0.66 3 1 C2.34 1 1.68 1 1 1 C1 1.99 1 2.98 1 4 C1.99 4.33 2.98 4.66 4 5 C4 5.99 4 6.98 4 8 C2.35 7.67 0.7 7.34 -1 7 C-1.04254356 5.00045254 -1.04080783 2.99958364 -1 1 C-0.67 0.67 -0.34 0.34 0 0 Z " fill="#ECECEC" transform="translate(282,345)"/>
<path d="M0 0 C0.66 0 1.32 0 2 0 C3.49821059 3.37097383 4 5.20442119 4 9 C4.66 9 5.32 9 6 9 C6 9.99 6 10.98 6 12 C5.01 12 4.02 12 3 12 C2.01 8.04 1.02 4.08 0 0 Z " fill="#1A1A1A" transform="translate(184,343)"/>
<path d="M0 0 C2.475 0.495 2.475 0.495 5 1 C5 2.32 5 3.64 5 5 C3.35 5 1.7 5 0 5 C0 3.35 0 1.7 0 0 Z " fill="#DFDFDF" transform="translate(226,344)"/>
<path d="M0 0 C0.66 0.66 1.32 1.32 2 2 C1.9765625 4.1640625 1.9765625 4.1640625 1.625 6.625 C1.51414062 7.44226563 1.40328125 8.25953125 1.2890625 9.1015625 C1.19367188 9.72804688 1.09828125 10.35453125 1 11 C0.01 11.33 -0.98 11.66 -2 12 C-2.99 11.01 -3.98 10.02 -5 9 C-3.35 8.67 -1.7 8.34 0 8 C0 5.36 0 2.72 0 0 Z " fill="#E6E6E6" transform="translate(351,347)"/>
<path d="M0 0 C0.99 0.33 1.98 0.66 3 1 C2.57781184 2.6498275 2.13675575 4.29483665 1.6875 5.9375 C1.44386719 6.85402344 1.20023438 7.77054687 0.94921875 8.71484375 C0.63597656 9.46894531 0.32273438 10.22304688 0 11 C-0.99 11.33 -1.98 11.66 -3 12 C-2.01 8.04 -1.02 4.08 0 0 Z " fill="#272727" transform="translate(199,343)"/>
<path d="M0 0 C0.66 0.33 1.32 0.66 2 1 C2.625 4.0625 2.625 4.0625 3 7 C2.01 7.66 1.02 8.32 0 9 C-0.66 8.67 -1.32 8.34 -2 8 C-1.34 5.36 -0.68 2.72 0 0 Z " fill="#E2E2E2" transform="translate(192,346)"/>
<path d="M0 0 C0 0.33 0 0.66 0 1 C-1.175625 1.12375 -1.175625 1.12375 -2.375 1.25 C-5.14044802 1.71525923 -5.14044802 1.71525923 -6.1875 4 C-6.455625 4.66 -6.72375 5.32 -7 6 C-7.99 6.495 -7.99 6.495 -9 7 C-9.22417836 4.2351335 -9.32233508 2.53722513 -7.875 0.125 C-5.07848948 -1.55290631 -3.06309468 -0.74875648 0 0 Z " fill="#535353" transform="translate(287,344)"/>
<path d="M0 0 C0.33 0 0.66 0 1 0 C1 4.95 1 9.9 1 15 C-0.32 13.68 -1.64 12.36 -3 11 C-2.34 10.67 -1.68 10.34 -1 10 C-0.53248212 7.64400765 -0.53248212 7.64400765 -0.375 4.9375 C-0.30023438 4.01839844 -0.22546875 3.09929687 -0.1484375 2.15234375 C-0.09945312 1.44207031 -0.05046875 0.73179687 0 0 Z " fill="#CFCFCF" transform="translate(209,307)"/>
<path d="M0 0 C3.7952131 1.49097658 5.61042731 3.75700849 8 7 C4.0521912 7 2.81491174 5.66275435 0 3 C0 2.01 0 1.02 0 0 Z " fill="#1A1A1A" transform="translate(193,307)"/>
<path d="M0 0 C2.50037734 2.17424117 3.43628586 3.73045798 4 7 C2.68 7.33 1.36 7.66 0 8 C0 5.36 0 2.72 0 0 Z " fill="#E0E0E0" transform="translate(299,347)"/>
<path d="M0 0 C1.33333333 2.66666667 2.66666667 5.33333333 4 8 C3.01 8.99 2.02 9.98 1 11 C0.63743142 9.5437328 0.28520207 8.08488815 -0.0625 6.625 C-0.35833984 5.40683594 -0.35833984 5.40683594 -0.66015625 4.1640625 C-1 2 -1 2 0 0 Z " fill="#3E3E3E" transform="translate(194,344)"/>
<path d="M0 0 C3.625 -0.1875 3.625 -0.1875 7 0 C7 0.99 7 1.98 7 3 C4.03 3 1.06 3 -2 3 C-1.34 2.01 -0.68 1.02 0 0 Z " fill="#2E2E2E" transform="translate(265,343)"/>
<path d="M0 0 C2.64 0 5.28 0 8 0 C8.33 1.32 8.66 2.64 9 4 C8.01 3.34 7.02 2.68 6 2 C4.68 2 3.36 2 2 2 C1.34 3.32 0.68 4.64 0 6 C0 4.02 0 2.04 0 0 Z " fill="#0C0C0C" transform="translate(224,343)"/>
<path d="M0 0 C0.33 0.66 0.66 1.32 1 2 C-0.125 5 -0.125 5 -2 8 C-4.6171875 9.1875 -4.6171875 9.1875 -7 10 C-6.02223933 8.51990357 -5.0427506 7.04094856 -4.0625 5.5625 C-3.51722656 4.73878906 -2.97195313 3.91507812 -2.41015625 3.06640625 C-1 1 -1 1 0 0 Z " fill="#DADADA" transform="translate(347,304)"/>
<path d="M0 0 C0.99 0.495 0.99 0.495 2 1 C2.86159454 4.23097953 3.30597523 6.22486274 2.0625 9.375 C1.711875 9.91125 1.36125 10.4475 1 11 C-0.20272819 8.59454362 -0.10071472 7.05003047 -0.0625 4.375 C-0.05347656 3.55773437 -0.04445312 2.74046875 -0.03515625 1.8984375 C-0.02355469 1.27195313 -0.01195312 0.64546875 0 0 Z " fill="#A59A6B" transform="translate(147,218)"/>
<path d="M0 0 C0.33 0.99 0.66 1.98 1 3 C2.65 3 4.3 3 6 3 C6 3.33 6 3.66 6 4 C4.02 4 2.04 4 0 4 C-0.33 4.99 -0.66 5.98 -1 7 C-1.66 6.67 -2.32 6.34 -3 6 C-2.01 4.02 -1.02 2.04 0 0 Z " fill="#191919" transform="translate(334,348)"/>
<path d="M0 0 C4.875 0.875 4.875 0.875 6 2 C6.04080783 3.99958364 6.04254356 6.00045254 6 8 C5.34 8 4.68 8 4 8 C3.566875 6.576875 3.566875 6.576875 3.125 5.125 C2.23174891 1.94788422 2.23174891 1.94788422 0 0 Z " fill="#191919" transform="translate(179,303)"/>
<path d="M0 0 C0.99 0 1.98 0 3 0 C3 3.96 3 7.92 3 12 C2.67 12 2.34 12 2 12 C2 9.03 2 6.06 2 3 C1.34 3 0.68 3 0 3 C0 2.01 0 1.02 0 0 Z " fill="#070707" transform="translate(307,343)"/>
<path d="M0 0 C6.875 0.875 6.875 0.875 8 2 C8.04080783 3.99958364 8.04254356 6.00045254 8 8 C7.71125 7.38125 7.4225 6.7625 7.125 6.125 C5.36588876 2.80223432 3.31664146 1.54776601 0 0 Z " fill="#111111" transform="translate(283,343)"/>
</svg>
