<?xml version="1.0" encoding="UTF-8"?>
<svg version="1.1" xmlns="http://www.w3.org/2000/svg" width="400" height="82">
<path d="M0 0 C132 0 264 0 400 0 C400 27.06 400 54.12 400 82 C268 82 136 82 0 82 C0 54.94 0 27.88 0 0 Z " fill="#FAFAF9" transform="translate(0,0)"/>
<path d="M0 0 C0 0.99 0 1.98 0 3 C1.55460937 2.94779297 1.55460937 2.94779297 3.140625 2.89453125 C4.51040042 2.86638518 5.88019341 2.83908589 7.25 2.8125 C7.93191406 2.78736328 8.61382812 2.76222656 9.31640625 2.73632812 C12.47446238 2.69033702 14.67382069 2.82614027 17.484375 4.32421875 C19 6 19 6 19 9 C26.59 9 34.18 9 42 9 C42.33 9.66 42.66 10.32 43 11 C40.69 11.33 38.38 11.66 36 12 C36.825 12.53625 37.65 13.0725 38.5 13.625 C41 16 41 16 41.4375 19.125 C41 22 41 22 39 24 C36.875 23.625 36.875 23.625 35 23 C35 21.68 35 20.36 35 19 C35.99 19 36.98 19 38 19 C36.02 17.02 36.02 17.02 34 15 C34 19.95 34 24.9 34 30 C32.02 28.02 32.02 28.02 30 26 C30 25.34 30 24.68 30 24 C28.88625 23.773125 27.7725 23.54625 26.625 23.3125 C23 22 23 22 21.5625 19.375 C21.376875 18.59125 21.19125 17.8075 21 17 C27.625 13 27.625 13 31 13 C31 12.34 31 11.68 31 11 C23.74 11 16.48 11 9 11 C9 15.29 9 19.58 9 24 C10.65 23.01 12.3 22.02 14 21 C13.01 20.01 13.01 20.01 12 19 C12.1875 16.9375 12.1875 16.9375 13 15 C13.99 14.67 14.98 14.34 16 14 C16.99 14.495 16.99 14.495 18 15 C18.31087045 18.96359827 18.32482417 21.38933056 16.4375 24.9375 C14 27 14 27 10.3125 27.375 C7 27 7 27 6 26 C5.63239269 23.67182036 5.29758419 21.3381615 5 19 C1.60085025 20.13304992 0.94745549 21.12518475 -1 24 C-3.86724686 23.42655063 -4.8614515 23.1385485 -7 21 C-6.625 18.875 -6.625 18.875 -6 17 C-5.01 17.66 -4.02 18.32 -3 19 C-2.67 17.35 -2.34 15.7 -2 14 C-2.94875 13.690625 -3.8975 13.38125 -4.875 13.0625 C-8 12 -8 12 -10 11 C-10 17.27 -10 23.54 -10 30 C-11.485 29.505 -11.485 29.505 -13 29 C-13 23.39 -13 17.78 -13 12 C-14.32 12 -15.64 12 -17 12 C-17 18.27 -17 24.54 -17 31 C-17.99 30.34 -18.98 29.68 -20 29 C-20.38384509 26.06402461 -20.603843 23.31972627 -20.6875 20.375 C-20.72166016 19.57320312 -20.75582031 18.77140625 -20.79101562 17.9453125 C-20.87356878 15.96403682 -20.93845916 13.98203963 -21 12 C-21.99 11.67 -22.98 11.34 -24 11 C-24 17.6 -24 24.2 -24 31 C-24.66 30.67 -25.32 30.34 -26 30 C-26.48757033 27.9847093 -26.97253596 25.96859946 -27.42578125 23.9453125 C-28.10843492 21.63264904 -29.05208413 20.41666609 -31 19 C-31.33 20.32 -31.66 21.64 -32 23 C-33.65 22.67 -35.3 22.34 -37 22 C-37.625 19.625 -37.625 19.625 -38 17 C-36 15 -36 15 -33 14.75 C-30 15 -30 15 -28 17 C-27.67 15.02 -27.34 13.04 -27 11 C-28.89666526 11.08772455 -30.79238993 11.19591301 -32.6875 11.3125 C-33.74324219 11.37050781 -34.79898438 11.42851562 -35.88671875 11.48828125 C-39.26507231 12.04356897 -41.24919046 12.9926525 -44 15 C-45.20272819 17.40545638 -45.10071472 18.94996953 -45.0625 21.625 C-45.05347656 22.44226563 -45.04445313 23.25953125 -45.03515625 24.1015625 C-45.02355469 24.72804688 -45.01195312 25.35453125 -45 26 C-44.01 24.515 -44.01 24.515 -43 23 C-41.02 23.495 -41.02 23.495 -39 24 C-39.495 26.475 -39.495 26.475 -40 29 C-41.65 29.33 -43.3 29.66 -45 30 C-48.12367637 26.97393852 -49.31606564 24.77877522 -49.4375 20.5 C-49.27572332 16.62383074 -48.4162597 14.12100211 -46 11 C-47.98 11 -49.96 11 -52 11 C-52 17.27 -52 23.54 -52 30 C-53.485 29.505 -53.485 29.505 -55 29 C-55.04898438 28.01257813 -55.09796875 27.02515625 -55.1484375 26.0078125 C-55.22320312 24.72648437 -55.29796875 23.44515625 -55.375 22.125 C-55.47941406 20.21074219 -55.47941406 20.21074219 -55.5859375 18.2578125 C-55.67241106 14.91938301 -55.67241106 14.91938301 -58 13 C-59.32 13 -60.64 13 -62 13 C-60.68 13.66 -59.36 14.32 -58 15 C-57.75 17.25 -57.75 17.25 -58 20 C-60 22.3125 -60 22.3125 -62 24 C-62.66 22.68 -63.32 21.36 -64 20 C-63.34 19.01 -62.68 18.02 -62 17 C-63.65 16.67 -65.3 16.34 -67 16 C-66.67 14.35 -66.34 12.7 -66 11 C-67.32 11 -68.64 11 -70 11 C-70 17.27 -70 23.54 -70 30 C-70.66 29.67 -71.32 29.34 -72 29 C-72.31241455 26.28553021 -72.51336592 23.66090639 -72.625 20.9375 C-72.68300781 19.79958008 -72.68300781 19.79958008 -72.7421875 18.63867188 C-72.83673562 16.75952805 -72.91946756 14.87979664 -73 13 C-73.99 12.67 -74.98 12.34 -76 12 C-76 18.27 -76 24.54 -76 31 C-80 27 -80 27 -81.4375 25.375 C-83.02207203 23.80976811 -83.02207203 23.80976811 -85.625 23.0625 C-88 22 -88 22 -89 20.125 C-89 17.25529451 -87.87086204 16.09536549 -86 14 C-88.31 13.01 -90.62 12.02 -93 11 C-93 17.6 -93 24.2 -93 31 C-93.99 30.34 -94.98 29.68 -96 29 C-96.38384509 26.06402461 -96.603843 23.31972627 -96.6875 20.375 C-96.73874023 19.17230469 -96.73874023 19.17230469 -96.79101562 17.9453125 C-96.87356878 15.96403682 -96.93845916 13.98203963 -97 12 C-102.445 11.505 -102.445 11.505 -108 11 C-107.67 12.98 -107.34 14.96 -107 17 C-106.01 16.01 -105.02 15.02 -104 14 C-101 15 -101 15 -100 17 C-99.54628857 24.14595496 -99.54628857 24.14595496 -101.0625 27 C-104.17909511 28.60856522 -106.56262469 28.42213381 -110 28 C-113.34843082 25.55655048 -114.89342882 22.96521339 -116 19 C-116.07646165 16.6679198 -116.09143299 14.33154122 -116 12 C-114 13 -114 13 -113.21875 14.77734375 C-112.9815625 15.49019531 -112.744375 16.20304687 -112.5 16.9375 C-111.57597536 19.70455204 -111.10862631 20.89137369 -109 23 C-105.90073181 22.67801034 -105.90073181 22.67801034 -103 22 C-103 21.34 -103 20.68 -103 20 C-105.31 20.33 -107.62 20.66 -110 21 C-110 17.7 -110 14.4 -110 11 C-112.64 11 -115.28 11 -118 11 C-118.33 10.34 -118.66 9.68 -119 9 C-111.41 9 -103.82 9 -96 9 C-95.67 8.01 -95.34 7.02 -95 6 C-94.67 6.99 -94.34 7.98 -94 9 C-90.541824 9.0868329 -87.08392656 9.14033282 -83.625 9.1875 C-82.64015625 9.21263672 -81.6553125 9.23777344 -80.640625 9.26367188 C-79.69960937 9.27333984 -78.75859375 9.28300781 -77.7890625 9.29296875 C-76.91975098 9.3086792 -76.05043945 9.32438965 -75.15478516 9.34057617 C-74.44370605 9.22818604 -73.73262695 9.1157959 -73 9 C-72.34 8.01 -71.68 7.02 -71 6 C-70.505 6.99 -70.505 6.99 -70 8 C-66.8567396 8.73099079 -64.04106239 9.00080514 -60.8125 8.9375 C-58 9 -58 9 -55 11 C-54.67 9.35 -54.34 7.7 -54 6 C-53.01 6.495 -53.01 6.495 -52 7 C-52 7.66 -52 8.32 -52 9 C-41.44 9 -30.88 9 -20 9 C-19.67 8.01 -19.34 7.02 -19 6 C-18.505 7.485 -18.505 7.485 -18 9 C-16.68 9 -15.36 9 -14 9 C-14.103125 8.2575 -14.20625 7.515 -14.3125 6.75 C-14 4 -14 4 -12.0625 1.6875 C-7.94978453 -0.57869016 -4.59291877 -0.36022892 0 0 Z " fill="#106631" transform="translate(267,12)"/>
<path d="M0 0 C0 0.99 0 1.98 0 3 C1.55460937 2.94779297 1.55460937 2.94779297 3.140625 2.89453125 C4.51040042 2.86638518 5.88019341 2.83908589 7.25 2.8125 C7.93191406 2.78736328 8.61382812 2.76222656 9.31640625 2.73632812 C12.47446238 2.69033702 14.67382069 2.82614027 17.484375 4.32421875 C19 6 19 6 19 9 C26.59 9 34.18 9 42 9 C42.495 9.99 42.495 9.99 43 11 C40.69 11.33 38.38 11.66 36 12 C36.825 12.53625 37.65 13.0725 38.5 13.625 C41 16 41 16 41.4375 19.125 C41 22 41 22 39 24 C36.875 23.625 36.875 23.625 35 23 C35 21.68 35 20.36 35 19 C35.99 19 36.98 19 38 19 C36.68 17.68 35.36 16.36 34 15 C34 19.95 34 24.9 34 30 C32.68 28.68 31.36 27.36 30 26 C30 25.34 30 24.68 30 24 C28.88625 23.773125 27.7725 23.54625 26.625 23.3125 C23 22 23 22 21.5625 19.375 C21.2840625 18.199375 21.2840625 18.199375 21 17 C27.625 13 27.625 13 31 13 C31 12.34 31 11.68 31 11 C23.74 11 16.48 11 9 11 C9 15.29 9 19.58 9 24 C11.475 22.515 11.475 22.515 14 21 C13.34 20.34 12.68 19.68 12 19 C12.1875 16.9375 12.1875 16.9375 13 15 C13.99 14.67 14.98 14.34 16 14 C16.66 14.33 17.32 14.66 18 15 C18.31087045 18.96359827 18.32482417 21.38933056 16.4375 24.9375 C14 27 14 27 10.3125 27.375 C7 27 7 27 6 26 C5.63239269 23.67182036 5.29758419 21.3381615 5 19 C1.60085025 20.13304992 0.94745549 21.12518475 -1 24 C-3.86724686 23.42655063 -4.8614515 23.1385485 -7 21 C-6.625 18.875 -6.625 18.875 -6 17 C-5.01 17.66 -4.02 18.32 -3 19 C-2.67 17.35 -2.34 15.7 -2 14 C-2.94875 13.690625 -3.8975 13.38125 -4.875 13.0625 C-8 12 -8 12 -10 11 C-10 17.27 -10 23.54 -10 30 C-10.99 29.67 -11.98 29.34 -13 29 C-13 23.39 -13 17.78 -13 12 C-14.32 12 -15.64 12 -17 12 C-17 18.27 -17 24.54 -17 31 C-20 29 -20 29 -20.46411133 26.98461914 C-20.5030249 26.17629639 -20.54193848 25.36797363 -20.58203125 24.53515625 C-20.62650391 23.65279297 -20.67097656 22.77042969 -20.71679688 21.86132812 C-20.74837891 20.93771484 -20.77996094 20.01410156 -20.8125 19.0625 C-20.86341797 18.14275391 -20.91433594 17.22300781 -20.96679688 16.27539062 C-21.26291645 9.39437468 -21.26291645 9.39437468 -19 6 C-18.67 6.99 -18.34 7.98 -18 9 C-16.68 9 -15.36 9 -14 9 C-14.103125 8.2575 -14.20625 7.515 -14.3125 6.75 C-14 4 -14 4 -12.0625 1.6875 C-7.94978453 -0.57869016 -4.59291877 -0.36022892 0 0 Z " fill="#0A602D" transform="translate(267,12)"/>
<path d="M0 0 C0.66 0 1.32 0 2 0 C2 1.32 2 2.64 2 4 C2.75925781 3.96519531 3.51851563 3.93039062 4.30078125 3.89453125 C5.79158203 3.85392578 5.79158203 3.85392578 7.3125 3.8125 C8.29863281 3.77769531 9.28476562 3.74289062 10.30078125 3.70703125 C13 4 13 4 14.85546875 5.38671875 C16 7 16 7 16 9 C16.99 9 17.98 9 19 9 C19.33 8.01 19.66 7.02 20 6 C20.495 7.485 20.495 7.485 21 9 C21.56509277 8.99476318 22.13018555 8.98952637 22.71240234 8.98413086 C25.2665903 8.96337578 27.82076053 8.9503446 30.375 8.9375 C31.70917969 8.92493164 31.70917969 8.92493164 33.0703125 8.91210938 C33.92109375 8.90888672 34.771875 8.90566406 35.6484375 8.90234375 C36.43395996 8.89710693 37.21948242 8.89187012 38.02880859 8.88647461 C40 9 40 9 42 10 C42 10.66 42 11.32 42 12 C40.68 12 39.36 12 38 12 C38 17.94 38 23.88 38 30 C37.34 30 36.68 30 36 30 C35.13375 28.6078125 35.13375 28.6078125 34.25 27.1875 C31.74534195 23.63923443 29.83412374 22.83371135 26 21 C24.625 18.8125 24.625 18.8125 24 17 C27.465 15.02 27.465 15.02 31 13 C28.03 12.67 25.06 12.34 22 12 C22 18.27 22 24.54 22 31 C21.01 30.34 20.02 29.68 19 29 C18.61615491 26.06402461 18.396157 23.31972627 18.3125 20.375 C18.27833984 19.57320312 18.24417969 18.77140625 18.20898438 17.9453125 C18.12643122 15.96403682 18.06154084 13.98203963 18 12 C13.71 11.67 9.42 11.34 5 11 C5 15.29 5 19.58 5 24 C7.475 22.515 7.475 22.515 10 21 C9.34 20.34 8.68 19.68 8 19 C8.375 16.875 8.375 16.875 9 15 C10.32 14.67 11.64 14.34 13 14 C15 17 15 17 14.875 19.375 C13.7837068 22.64887959 12.43945787 24.56054213 10 27 C7.4375 28 7.4375 28 5 28 C3.25 27 3.25 27 2 25 C1.3125 21.3125 1.3125 21.3125 1 18 C0.34 18.66 -0.32 19.32 -1 20 C-2.32 20 -3.64 20 -5 20 C-5.125 17.625 -5.125 17.625 -5 15 C-4.34 14.34 -3.68 13.68 -3 13 C-0.375 13.375 -0.375 13.375 2 14 C2 13.01 2 12.02 2 11 C-1.3 11 -4.6 11 -8 11 C-8 17.27 -8 23.54 -8 30 C-8.66 29.67 -9.32 29.34 -10 29 C-10.4140625 26.71484375 -10.4140625 26.71484375 -10.625 23.9375 C-10.69976562 23.01839844 -10.77453125 22.09929688 -10.8515625 21.15234375 C-10.90054687 20.44207031 -10.94953125 19.73179688 -11 19 C-11.99 19 -12.98 19 -14 19 C-14.45375 19.66 -14.9075 20.32 -15.375 21 C-15.91125 21.66 -16.4475 22.32 -17 23 C-19.6875 23.25 -19.6875 23.25 -22 23 C-22.33 21.35 -22.66 19.7 -23 18 C-22.34 17.67 -21.68 17.34 -21 17 C-21 17.99 -21 18.98 -21 20 C-20.34 20 -19.68 20 -19 20 C-18.67 18.35 -18.34 16.7 -18 15 C-21.44770644 13.35558108 -21.44770644 13.35558108 -25.1875 13.25 C-27.20441549 13.94907214 -27.20441549 13.94907214 -29 16 C-29.24287489 18.44012949 -29.24287489 18.44012949 -29.125 21.125 C-29.10695313 22.03507812 -29.08890625 22.94515625 -29.0703125 23.8828125 C-29.04710937 24.58148438 -29.02390625 25.28015625 -29 26 C-28.67 25.34 -28.34 24.68 -28 24 C-26.35 24.33 -24.7 24.66 -23 25 C-23.33 26.32 -23.66 27.64 -24 29 C-26.3125 29.6875 -26.3125 29.6875 -29 30 C-31.53844009 28.18682851 -31.99489025 27.01532925 -33 24 C-33.2734375 21.94921875 -33.2734375 21.94921875 -33.375 19.6875 C-33.42398437 18.94886719 -33.47296875 18.21023437 -33.5234375 17.44921875 C-32.73889439 13.77825958 -30.93360071 11.25380347 -28 9 C-24.83517432 8.18138058 -21.79404921 8.29847538 -18.54296875 8.4140625 C-17.18852409 8.42679703 -17.18852409 8.42679703 -15.80671692 8.43978882 C-12.93241308 8.47328455 -10.06095067 8.54855414 -7.1875 8.625 C-5.23506666 8.65510467 -3.28258919 8.6824796 -1.33007812 8.70703125 C3.44770364 8.77306313 8.22337069 8.87655653 13 9 C13 8.34 13 7.68 13 7 C11.84371094 7.03480469 11.84371094 7.03480469 10.6640625 7.0703125 C9.66117187 7.08835937 8.65828125 7.10640625 7.625 7.125 C6.62726563 7.14820313 5.62953125 7.17140625 4.6015625 7.1953125 C2 7 2 7 0 5 C-0.125 2.375 -0.125 2.375 0 0 Z " fill="#025722" transform="translate(352,12)"/>
<path d="M0 0 C0.99 0 1.98 0 3 0 C2.86980469 0.66386719 2.73960938 1.32773437 2.60546875 2.01171875 C2.17912283 4.74112952 1.88061942 7.23719232 2 10 C4.37505218 12.70848923 4.37505218 12.70848923 7 15 C7.73596907 19.41581442 7.19608484 21.98802348 4.875 25.6875 C4.25625 26.780625 3.6375 27.87375 3 29 C3.51603346 31.19907702 3.51603346 31.19907702 5 33 C5.66 34.65 6.32 36.3 7 38 C15.58 38 24.16 38 33 38 C33 38.66 33 39.32 33 40 C32.00097656 40.04898438 31.00195312 40.09796875 29.97265625 40.1484375 C28.68230469 40.22320312 27.39195313 40.29796875 26.0625 40.375 C24.13083984 40.47941406 24.13083984 40.47941406 22.16015625 40.5859375 C20.59587891 40.79089844 20.59587891 40.79089844 19 41 C18.505 41.99 18.505 41.99 18 43 C18.33 43.33 18.66 43.66 19 44 C19 44.99 19 45.98 19 47 C14.66666667 47 10.33333333 47 6 47 C6 46.34 6 45.68 6 45 C5.34 45 4.68 45 4 45 C3.505 45.99 3.505 45.99 3 47 C-0.0625 47.625 -0.0625 47.625 -3 48 C0.3 48.33 3.6 48.66 7 49 C7.33 49.99 7.66 50.98 8 52 C7.34 52.99 6.68 53.98 6 55 C6 54.34 6 53.68 6 53 C5.34 53 4.68 53 4 53 C3.505 53.99 3.505 53.99 3 55 C3 53.68 3 52.36 3 51 C2.34 51 1.68 51 1 51 C0.67 52.65 0.34 54.3 0 56 C-0.66 54.68 -1.32 53.36 -2 52 C-2.33 52.99 -2.66 53.98 -3 55 C-5.475 55.495 -5.475 55.495 -8 56 C-8 54.35 -8 52.7 -8 51 C-8.33 52.65 -8.66 54.3 -9 56 C-10.32 56 -11.64 56 -13 56 C-13 54.68 -13 53.36 -13 52 C-14.32 51.67 -15.64 51.34 -17 51 C-17 51.99 -17 52.98 -17 54 C-15.515 53.505 -15.515 53.505 -14 53 C-14.33 53.99 -14.66 54.98 -15 56 C-16.32 55.67 -17.64 55.34 -19 55 C-18.33333333 51.66666667 -17.66666667 48.33333333 -17 45 C-16.01 45 -15.02 45 -14 45 C-14.33 44.34 -14.66 43.68 -15 43 C-15.33 42.34 -15.66 41.68 -16 41 C-15.1028125 41.2784375 -15.1028125 41.2784375 -14.1875 41.5625 C-11.83591238 42.22093687 -11.83591238 42.22093687 -9 41 C-8.67 41.66 -8.34 42.32 -8 43 C-6.68 42.34 -5.36 41.68 -4 41 C-3.67 41.66 -3.34 42.32 -3 43 C-2.505 42.01 -2.505 42.01 -2 41 C-1.16855469 41.01160156 -0.33710937 41.02320313 0.51953125 41.03515625 C2.14955078 41.04869141 2.14955078 41.04869141 3.8125 41.0625 C5.43091797 41.07990234 5.43091797 41.07990234 7.08203125 41.09765625 C10.06512169 41.13624766 10.06512169 41.13624766 13 40 C-3.83 39.67 -20.66 39.34 -38 39 C-38 38.67 -38 38.34 -38 38 C-30.08 37.67 -22.16 37.34 -14 37 C-13.67 36.34 -13.34 35.68 -13 35 C-9.7 35 -6.4 35 -3 35 C-3.495 33.02 -3.495 33.02 -4 31 C-4.66 30.67 -5.32 30.34 -6 30 C-5.34 28.02 -4.68 26.04 -4 24 C-4.66 23.67 -5.32 23.34 -6 23 C-3.36 23.33 -0.72 23.66 2 24 C2.33 22.68 2.66 21.36 3 20 C1.35 19.01 -0.3 18.02 -2 17 C-2.33 17.66 -2.66 18.32 -3 19 C-4.98 18.01 -6.96 17.02 -9 16 C-8.566875 15.505 -8.13375 15.01 -7.6875 14.5 C-5.77780253 11.67081856 -4.80525581 8.93238917 -3.74609375 5.70703125 C-3 4 -3 4 -1 3 C-0.67 2.01 -0.34 1.02 0 0 Z " fill="#285C76" transform="translate(42,25)"/>
<path d="M0 0 C2.30789487 1.48503784 4.01822931 3.06777358 6 5 C5.67 5.66 5.34 6.32 5 7 C4.34 6.505 3.68 6.01 3 5.5 C-0.96633241 3.51683379 -3.60303262 3.77642539 -8 4 C-8.66 5.32 -9.32 6.64 -10 8 C-2.74 7.67 4.52 7.34 12 7 C12.33 5.35 12.66 3.7 13 2 C14.5625 0.125 14.5625 0.125 17 -1 C22.75173311 -0.90413778 28.38110128 0.37168803 33 4 C33.34334869 5.33078945 33.67751743 6.66400079 34 8 C34.99 8.33 35.98 8.66 37 9 C37 9.33 37 9.66 37 10 C32.38 10 27.76 10 23 10 C23 14.29 23 18.58 23 23 C25.475 21.515 25.475 21.515 28 20 C27.34 18.35 26.68 16.7 26 15 C26.66 14.34 27.32 13.68 28 13 C30.125 13.375 30.125 13.375 32 14 C32.75 16.125 32.75 16.125 33 19 C31.25462343 22.06945534 29.49346035 24.50653965 27 27 C23.70285207 26.67028521 22.3773161 26.3773161 20 24 C19.8046875 20.7421875 19.8046875 20.7421875 19.875 16.875 C19.89304688 15.59367187 19.91109375 14.31234375 19.9296875 12.9921875 C19.95289063 12.00476562 19.97609375 11.01734375 20 10 C18.68 10 17.36 10 16 10 C16 16.27 16 22.54 16 29 C15.01 28.34 14.02 27.68 13 27 C12.77892213 24.2114711 12.71892465 21.65346819 12.8125 18.875 C12.83280273 17.74384766 12.83280273 17.74384766 12.85351562 16.58984375 C12.88890015 14.72625873 12.94270833 12.86304022 13 11 C12.01 11 11.02 11 10 11 C10 16.94 10 22.88 10 29 C9.01 28.67 8.02 28.34 7 28 C6.505 23.05 6.505 23.05 6 18 C5.01 18 4.02 18 3 18 C0.79857668 20.4390706 0.79857668 20.4390706 -1 23 C-2.32 22.67 -3.64 22.34 -5 22 C-5.33 20.35 -5.66 18.7 -6 17 C-5.34 16.67 -4.68 16.34 -4 16 C-4 16.99 -4 17.98 -4 19 C-3.34 19 -2.68 19 -2 19 C-1.67 17.35 -1.34 15.7 -1 14 C-3.64 12.68 -6.28 11.36 -9 10 C-9 16.27 -9 22.54 -9 29 C-9.99 28.34 -10.98 27.68 -12 27 C-12.22107787 24.2114711 -12.28107535 21.65346819 -12.1875 18.875 C-12.17396484 18.12089844 -12.16042969 17.36679687 -12.14648438 16.58984375 C-12.11109985 14.72625873 -12.05729167 12.86304022 -12 11 C-13.32 10.34 -14.64 9.68 -16 9 C-15.01 8.34 -14.02 7.68 -13 7 C-12.855625 6.195625 -12.71125 5.39125 -12.5625 4.5625 C-12 2 -12 2 -10.4375 0.125 C-6.83134629 -1.53937864 -3.68085179 -1.1916934 0 0 Z " fill="#2B7447" transform="translate(105,13)"/>
<path d="M0 0 C0.66 0.33 1.32 0.66 2 1 C2 1.66 2 2.32 2 3 C12.23 3 22.46 3 33 3 C33 3.66 33 4.32 33 5 C32.01 5 31.02 5 30 5 C30 11.6 30 18.2 30 25 C29.34 24.67 28.68 24.34 28 24 C27.51242967 21.9847093 27.02746404 19.96859946 26.57421875 17.9453125 C25.89156508 15.63264904 24.94791587 14.41666609 23 13 C22.67 14.32 22.34 15.64 22 17 C20.35 16.67 18.7 16.34 17 16 C16.375 13.625 16.375 13.625 16 11 C18 9 18 9 21 8.75 C24 9 24 9 26 11 C26.33 9.02 26.66 7.04 27 5 C25.10333474 5.08772455 23.20761007 5.19591301 21.3125 5.3125 C20.25675781 5.37050781 19.20101562 5.42851562 18.11328125 5.48828125 C14.73492769 6.04356897 12.75080954 6.9926525 10 9 C8.79727181 11.40545638 8.89928528 12.94996953 8.9375 15.625 C8.94652344 16.44226563 8.95554688 17.25953125 8.96484375 18.1015625 C8.97644531 18.72804688 8.98804688 19.35453125 9 20 C9.66 19.01 10.32 18.02 11 17 C12.32 17.33 13.64 17.66 15 18 C14.67 19.65 14.34 21.3 14 23 C12.35 23.33 10.7 23.66 9 24 C5.87632363 20.97393852 4.68393436 18.77877522 4.5625 14.5 C4.72427668 10.62383074 5.5837403 8.12100211 8 5 C6.02 5 4.04 5 2 5 C2 11.27 2 17.54 2 24 C1.01 23.67 0.02 23.34 -1 23 C-1.04898438 22.01257813 -1.09796875 21.02515625 -1.1484375 20.0078125 C-1.26058594 18.08582031 -1.26058594 18.08582031 -1.375 16.125 C-1.44460937 14.84882812 -1.51421875 13.57265625 -1.5859375 12.2578125 C-1.67241106 8.91938301 -1.67241106 8.91938301 -4 7 C-5.32 7 -6.64 7 -8 7 C-6.68 7.66 -5.36 8.32 -4 9 C-3.75 11.25 -3.75 11.25 -4 14 C-6 16.3125 -6 16.3125 -8 18 C-8.66 16.68 -9.32 15.36 -10 14 C-9.34 13.01 -8.68 12.02 -8 11 C-9.65 10.67 -11.3 10.34 -13 10 C-12.625 7.0625 -12.625 7.0625 -12 4 C-9.22899606 2.61449803 -7.0665294 2.8122533 -4 3 C-3.01 3.66 -2.02 4.32 -1 5 C-0.67 3.35 -0.34 1.7 0 0 Z " fill="#0A5E2A" transform="translate(213,18)"/>
<path d="M0 0 C0 0.99 0 1.98 0 3 C1.55460937 2.94779297 1.55460937 2.94779297 3.140625 2.89453125 C4.51040042 2.86638518 5.88019341 2.83908589 7.25 2.8125 C7.93191406 2.78736328 8.61382812 2.76222656 9.31640625 2.73632812 C12.43741244 2.69087658 14.68079205 2.83788653 17.484375 4.26171875 C19 6 19 6 19 10 C9.43 10 -0.14 10 -10 10 C-10 16.6 -10 23.2 -10 30 C-10.99 29.67 -11.98 29.34 -13 29 C-13 23.39 -13 17.78 -13 12 C-14.32 12 -15.64 12 -17 12 C-17 18.27 -17 24.54 -17 31 C-20 29 -20 29 -20.46411133 26.98461914 C-20.5030249 26.17629639 -20.54193848 25.36797363 -20.58203125 24.53515625 C-20.62650391 23.65279297 -20.67097656 22.77042969 -20.71679688 21.86132812 C-20.74837891 20.93771484 -20.77996094 20.01410156 -20.8125 19.0625 C-20.86341797 18.14275391 -20.91433594 17.22300781 -20.96679688 16.27539062 C-21.26291645 9.39437468 -21.26291645 9.39437468 -19 6 C-18.67 6.99 -18.34 7.98 -18 9 C-16.68 9 -15.36 9 -14 9 C-14.103125 8.2575 -14.20625 7.515 -14.3125 6.75 C-14 4 -14 4 -12.0625 1.6875 C-7.94978453 -0.57869016 -4.59291877 -0.36022892 0 0 Z " fill="#176735" transform="translate(267,12)"/>
<path d="M0 0 C0.66 0 1.32 0 2 0 C2 1.32 2 2.64 2 4 C2.75925781 3.96519531 3.51851563 3.93039062 4.30078125 3.89453125 C5.79158203 3.85392578 5.79158203 3.85392578 7.3125 3.8125 C8.29863281 3.77769531 9.28476562 3.74289062 10.30078125 3.70703125 C13 4 13 4 14.85546875 5.51171875 C15.23316406 6.00285156 15.61085938 6.49398438 16 7 C15.67 7.99 15.34 8.98 15 10 C7.30678839 10.67526622 -0.27648701 11.11527631 -8 11 C-8 17.27 -8 23.54 -8 30 C-8.66 29.67 -9.32 29.34 -10 29 C-10.4140625 26.71484375 -10.4140625 26.71484375 -10.625 23.9375 C-10.69976562 23.01839844 -10.77453125 22.09929688 -10.8515625 21.15234375 C-10.90054687 20.44207031 -10.94953125 19.73179688 -11 19 C-11.99 19 -12.98 19 -14 19 C-14.45375 19.66 -14.9075 20.32 -15.375 21 C-15.91125 21.66 -16.4475 22.32 -17 23 C-19.6875 23.25 -19.6875 23.25 -22 23 C-22.33 21.35 -22.66 19.7 -23 18 C-22.34 17.67 -21.68 17.34 -21 17 C-21 17.99 -21 18.98 -21 20 C-20.34 20 -19.68 20 -19 20 C-18.67 18.35 -18.34 16.7 -18 15 C-21.44770644 13.35558108 -21.44770644 13.35558108 -25.1875 13.25 C-27.20441549 13.94907214 -27.20441549 13.94907214 -29 16 C-29.24287489 18.44012949 -29.24287489 18.44012949 -29.125 21.125 C-29.10695313 22.03507812 -29.08890625 22.94515625 -29.0703125 23.8828125 C-29.04710937 24.58148438 -29.02390625 25.28015625 -29 26 C-28.67 25.34 -28.34 24.68 -28 24 C-26.35 24.33 -24.7 24.66 -23 25 C-23.33 26.32 -23.66 27.64 -24 29 C-26.3125 29.6875 -26.3125 29.6875 -29 30 C-31.53844009 28.18682851 -31.99489025 27.01532925 -33 24 C-33.2734375 21.94921875 -33.2734375 21.94921875 -33.375 19.6875 C-33.42398437 18.94886719 -33.47296875 18.21023437 -33.5234375 17.44921875 C-32.73889439 13.77825958 -30.93360071 11.25380347 -28 9 C-24.83517432 8.18138058 -21.79404921 8.29847538 -18.54296875 8.4140625 C-17.18852409 8.42679703 -17.18852409 8.42679703 -15.80671692 8.43978882 C-12.93241308 8.47328455 -10.06095067 8.54855414 -7.1875 8.625 C-5.23506666 8.65510467 -3.28258919 8.6824796 -1.33007812 8.70703125 C3.44770364 8.77306313 8.22337069 8.87655653 13 9 C13 8.34 13 7.68 13 7 C11.84371094 7.03480469 11.84371094 7.03480469 10.6640625 7.0703125 C9.66117187 7.08835937 8.65828125 7.10640625 7.625 7.125 C6.62726563 7.14820313 5.62953125 7.17140625 4.6015625 7.1953125 C2 7 2 7 0 5 C-0.125 2.375 -0.125 2.375 0 0 Z " fill="#01551E" transform="translate(352,12)"/>
<path d="M0 0 C0.89267578 0.00644531 1.78535156 0.01289062 2.70507812 0.01953125 C3.63384766 0.03628906 4.56261719 0.05304687 5.51953125 0.0703125 C6.45990234 0.07933594 7.40027344 0.08835938 8.36914062 0.09765625 C10.69036093 0.12122194 13.01106769 0.15412134 15.33203125 0.1953125 C15.33203125 0.5253125 15.33203125 0.8553125 15.33203125 1.1953125 C14.33300781 1.24429688 13.33398438 1.29328125 12.3046875 1.34375 C11.01433594 1.41851562 9.72398438 1.49328125 8.39453125 1.5703125 C7.10675781 1.63992187 5.81898437 1.70953125 4.4921875 1.78125 C3.44933594 1.91789062 2.40648437 2.05453125 1.33203125 2.1953125 C1.00203125 2.8553125 0.67203125 3.5153125 0.33203125 4.1953125 C0.82703125 4.6903125 0.82703125 4.6903125 1.33203125 5.1953125 C1.33203125 6.1853125 1.33203125 7.1753125 1.33203125 8.1953125 C-3.00130208 8.1953125 -7.33463542 8.1953125 -11.66796875 8.1953125 C-11.66796875 7.5353125 -11.66796875 6.8753125 -11.66796875 6.1953125 C-12.32796875 6.1953125 -12.98796875 6.1953125 -13.66796875 6.1953125 C-13.99796875 6.8553125 -14.32796875 7.5153125 -14.66796875 8.1953125 C-17.73046875 8.8203125 -17.73046875 8.8203125 -20.66796875 9.1953125 C-17.36796875 9.5253125 -14.06796875 9.8553125 -10.66796875 10.1953125 C-10.33796875 11.1853125 -10.00796875 12.1753125 -9.66796875 13.1953125 C-10.65796875 14.6803125 -10.65796875 14.6803125 -11.66796875 16.1953125 C-11.66796875 15.5353125 -11.66796875 14.8753125 -11.66796875 14.1953125 C-12.32796875 14.1953125 -12.98796875 14.1953125 -13.66796875 14.1953125 C-13.99796875 14.8553125 -14.32796875 15.5153125 -14.66796875 16.1953125 C-14.66796875 14.8753125 -14.66796875 13.5553125 -14.66796875 12.1953125 C-15.32796875 12.1953125 -15.98796875 12.1953125 -16.66796875 12.1953125 C-16.99796875 13.8453125 -17.32796875 15.4953125 -17.66796875 17.1953125 C-18.32796875 15.8753125 -18.98796875 14.5553125 -19.66796875 13.1953125 C-19.99796875 14.1853125 -20.32796875 15.1753125 -20.66796875 16.1953125 C-22.31796875 16.5253125 -23.96796875 16.8553125 -25.66796875 17.1953125 C-25.66796875 15.5453125 -25.66796875 13.8953125 -25.66796875 12.1953125 C-25.99796875 13.8453125 -26.32796875 15.4953125 -26.66796875 17.1953125 C-27.98796875 17.1953125 -29.30796875 17.1953125 -30.66796875 17.1953125 C-30.66796875 15.8753125 -30.66796875 14.5553125 -30.66796875 13.1953125 C-31.98796875 12.8653125 -33.30796875 12.5353125 -34.66796875 12.1953125 C-34.66796875 13.1853125 -34.66796875 14.1753125 -34.66796875 15.1953125 C-33.67796875 14.8653125 -32.68796875 14.5353125 -31.66796875 14.1953125 C-31.99796875 15.1853125 -32.32796875 16.1753125 -32.66796875 17.1953125 C-33.98796875 16.8653125 -35.30796875 16.5353125 -36.66796875 16.1953125 C-36.00130208 12.86197917 -35.33463542 9.52864583 -34.66796875 6.1953125 C-33.67796875 6.1953125 -32.68796875 6.1953125 -31.66796875 6.1953125 C-31.99796875 5.5353125 -32.32796875 4.8753125 -32.66796875 4.1953125 C-32.99796875 3.5353125 -33.32796875 2.8753125 -33.66796875 2.1953125 C-33.06984375 2.3809375 -32.47171875 2.5665625 -31.85546875 2.7578125 C-29.50388113 3.41624937 -29.50388113 3.41624937 -26.66796875 2.1953125 C-26.33796875 2.8553125 -26.00796875 3.5153125 -25.66796875 4.1953125 C-24.34796875 3.5353125 -23.02796875 2.8753125 -21.66796875 2.1953125 C-21.33796875 2.8553125 -21.00796875 3.5153125 -20.66796875 4.1953125 C-20.33796875 3.5353125 -20.00796875 2.8753125 -19.66796875 2.1953125 C-18.42080078 2.23011719 -18.42080078 2.23011719 -17.1484375 2.265625 C-15.51841797 2.29269531 -15.51841797 2.29269531 -13.85546875 2.3203125 C-12.77652344 2.34351562 -11.69757812 2.36671875 -10.5859375 2.390625 C-6.49763471 2.11697689 -4.28405523 -0.05457395 0 0 Z " fill="#DDA7A7" transform="translate(59.66796875,63.8046875)"/>
<path d="M0 0 C2.30789487 1.48503784 4.01822931 3.06777358 6 5 C5.67 5.66 5.34 6.32 5 7 C4.34 6.505 3.68 6.01 3 5.5 C-0.96633241 3.51683379 -3.60303262 3.77642539 -8 4 C-8.66 5.32 -9.32 6.64 -10 8 C-2.41 8 5.18 8 13 8 C13 8.66 13 9.32 13 10 C11.68 10 10.36 10 9 10 C9 16.27 9 22.54 9 29 C8.34 28.67 7.68 28.34 7 28 C6.5859375 25.71484375 6.5859375 25.71484375 6.375 22.9375 C6.30023438 22.01839844 6.22546875 21.09929688 6.1484375 20.15234375 C6.09945312 19.44207031 6.05046875 18.73179688 6 18 C5.01 18 4.02 18 3 18 C0.79857668 20.4390706 0.79857668 20.4390706 -1 23 C-2.32 22.67 -3.64 22.34 -5 22 C-5.33 20.35 -5.66 18.7 -6 17 C-5.34 16.67 -4.68 16.34 -4 16 C-4 16.99 -4 17.98 -4 19 C-3.34 19 -2.68 19 -2 19 C-1.67 17.35 -1.34 15.7 -1 14 C-3.64 12.68 -6.28 11.36 -9 10 C-9 16.27 -9 22.54 -9 29 C-9.99 28.34 -10.98 27.68 -12 27 C-12.22107787 24.2114711 -12.28107535 21.65346819 -12.1875 18.875 C-12.17396484 18.12089844 -12.16042969 17.36679687 -12.14648438 16.58984375 C-12.11109985 14.72625873 -12.05729167 12.86304022 -12 11 C-13.32 10.34 -14.64 9.68 -16 9 C-15.01 8.34 -14.02 7.68 -13 7 C-12.855625 6.195625 -12.71125 5.39125 -12.5625 4.5625 C-12 2 -12 2 -10.4375 0.125 C-6.83134629 -1.53937864 -3.68085179 -1.1916934 0 0 Z " fill="#1A6938" transform="translate(105,13)"/>
<path d="M0 0 C1.67056149 0.31323028 3.33605325 0.65334443 5 1 C7.99558991 1.37633039 10.9966347 1.69246586 14 2 C14 4.62113708 13.68707555 6.50935112 13 9 C11.125 8.6875 11.125 8.6875 9 8 C8.34 7.01 7.68 6.02 7 5 C6.67 6.65 6.34 8.3 6 10 C5.34 9.01 4.68 8.02 4 7 C3.13375 7.7425 3.13375 7.7425 2.25 8.5 C0 10 0 10 -4 10 C-4.33 9.34 -4.66 8.68 -5 8 C-5.969375 8.33 -6.93875 8.66 -7.9375 9 C-11 10 -11 10 -12 10 C-12.33 10.66 -12.66 11.32 -13 12 C-13.99 11.67 -14.98 11.34 -16 11 C-16 9.68 -16 8.36 -16 7 C-16.66 7 -17.32 7 -18 7 C-18.33 6.01 -18.66 5.02 -19 4 C-19 5.65 -19 7.3 -19 9 C-20.98 8.34 -22.96 7.68 -25 7 C-25.33 5.35 -25.66 3.7 -26 2 C-24.8718689 1.96241577 -24.8718689 1.96241577 -23.72094727 1.92407227 C-20.33460804 1.80849486 -16.94857387 1.68559655 -13.5625 1.5625 C-11.78649414 1.50352539 -11.78649414 1.50352539 -9.97460938 1.44335938 C-8.84990234 1.40146484 -7.72519531 1.35957031 -6.56640625 1.31640625 C-5.52427979 1.27974854 -4.48215332 1.24309082 -3.40844727 1.20532227 C-1.0500174 1.26484659 -1.0500174 1.26484659 0 0 Z " fill="#636363" transform="translate(220,5)"/>
<path d="M0 0 C5.93295743 5.00168192 9.57127572 10.73684288 10.34765625 18.45703125 C10.65603299 26.38784838 10.24172366 32.74169963 5 39 C4.01 39.495 4.01 39.495 3 40 C4.875 35.25 4.875 35.25 6 33 C7.08284948 20.24873556 7.08284948 20.24873556 2 9 C-3.01336861 3.60194221 -8.16658968 0.30230618 -15.56640625 -0.28125 C-22.41461224 -0.44191172 -26.90005744 -0.2425539 -33 3 C-33.66 2.67 -34.32 2.34 -35 2 C-33.42065361 1.01441551 -31.83634827 0.03677459 -30.25 -0.9375 C-29.36828125 -1.48277344 -28.4865625 -2.02804688 -27.578125 -2.58984375 C-18.39194098 -7.61440804 -8.66249747 -4.98786363 0 0 Z " fill="#CE3C42" transform="translate(59,18)"/>
<path d="M0 0 C4.10703441 0.85563217 5.55401113 2.24378009 8 5.625 C8.625 9.125 8.625 9.125 8 12.625 C5.38431879 16.35036415 3.9396067 17.46015672 -0.5625 18.25 C-4 17.625 -4 17.625 -6.4375 15.5625 C-8.41143691 11.85149861 -8.66694827 9.77490033 -8 5.625 C-5.55401113 2.24378009 -4.10703441 0.85563217 0 0 Z " fill="#B21E1E" transform="translate(229,46.375)"/>
<path d="M0 0 C9.12317328 -0.48016701 9.12317328 -0.48016701 12.625 1.4375 C14.69251226 5.29059104 14.73682337 8.72799219 14 13 C12.625 15.5625 12.625 15.5625 10 17 C6.59259145 17.31510518 3.43772582 17.18093294 0 17 C0 11.39 0 5.78 0 0 Z " fill="#B10404" transform="translate(147,47)"/>
<path d="M0 0 C0 4.62 0 9.24 0 14 C1.65 13.01 3.3 12.02 5 11 C4.34 10.34 3.68 9.68 3 9 C3.1875 6.9375 3.1875 6.9375 4 5 C4.99 4.67 5.98 4.34 7 4 C7.66 4.33 8.32 4.66 9 5 C9.31087045 8.96359827 9.32482417 11.38933056 7.4375 14.9375 C5 17 5 17 1.3125 17.375 C-2 17 -2 17 -3 16 C-3.36760731 13.67182036 -3.70241581 11.3381615 -4 9 C-7.39914975 10.13304992 -8.05254451 11.12518475 -10 14 C-12.86724686 13.42655063 -13.8614515 13.1385485 -16 11 C-15.625 8.875 -15.625 8.875 -15 7 C-13.515 7.99 -13.515 7.99 -12 9 C-10.0549 6.08235 -9.54723683 4.37462715 -9 1 C-5.94152152 0.45627049 -3.11227195 0 0 0 Z " fill="#0D632D" transform="translate(276,22)"/>
<path d="M0 0 C4.95906684 2.42985242 4.95906684 2.42985242 6.33203125 5.17578125 C5.09453125 4.84578125 3.85703125 4.51578125 2.58203125 4.17578125 C-3.81103006 2.80655867 -10.87920321 1.47521322 -17.03515625 4.23828125 C-19.17772216 5.72594965 -20.88952488 7.2700123 -22.66796875 9.17578125 C-23.19519531 9.73265625 -23.72242188 10.28953125 -24.265625 10.86328125 C-28.90545538 16.86016509 -28.46763421 23.91986941 -27.66796875 31.17578125 C-27.06303036 33.19530941 -26.41410964 35.2040515 -25.66796875 37.17578125 C-29.78406721 33.39404373 -31.3310184 28.93556509 -31.99609375 23.48828125 C-32.23846391 17.25590579 -31.63370381 12.14602968 -27.66796875 7.17578125 C-19.42233216 -0.36685258 -11.26436725 -3.47991433 0 0 Z " fill="#3E97AC" transform="translate(49.66796875,19.82421875)"/>
<path d="M0 0 C0 0.66 0 1.32 0 2 C-1.32 2 -2.64 2 -4 2 C-4 7.94 -4 13.88 -4 20 C-4.66 20 -5.32 20 -6 20 C-6.5775 19.071875 -7.155 18.14375 -7.75 17.1875 C-10.25465805 13.63923443 -12.16587626 12.83371135 -16 11 C-17.375 8.8125 -17.375 8.8125 -18 7 C-15.69 5.68 -13.38 4.36 -11 3 C-13.97 2.67 -16.94 2.34 -20 2 C-20 8.27 -20 14.54 -20 21 C-20.33 21 -20.66 21 -21 21 C-21 14.4 -21 7.8 -21 1 C-6.9375 -0.07142857 -6.9375 -0.07142857 0 0 Z " fill="#367D53" transform="translate(394,22)"/>
<path d="M0 0 C1.32 0 2.64 0 4 0 C5.484375 1.75 5.484375 1.75 6.75 4 C7.17796875 4.7425 7.6059375 5.485 8.046875 6.25 C8.36140625 6.8275 8.6759375 7.405 9 8 C9.33 5.36 9.66 2.72 10 0 C11.32 0 12.64 0 14 0 C14 5.61 14 11.22 14 17 C9 16 9 16 7.63671875 14.37109375 C6.31835938 11.68554688 6.31835938 11.68554688 5 9 C4.67 11.64 4.34 14.28 4 17 C2.68 17 1.36 17 0 17 C0 11.39 0 5.78 0 0 Z " fill="#BA2B2B" transform="translate(330,47)"/>
<path d="M0 0 C9.1796875 -0.1953125 9.1796875 -0.1953125 12 0 C12.66 0.66 13.32 1.32 14 2 C13.625 4.625 13.625 4.625 13 7 C12.01 7.33 11.02 7.66 10 8 C10 8.66 10 9.32 10 10 C10.66 10 11.32 10 12 10 C12.99 11.98 13.98 13.96 15 16 C11.3967764 15.69973137 10.27135597 15.31924232 7.875 12.5 C7.25625 11.675 6.6375 10.85 6 10 C5.01 9.67 4.02 9.34 3 9 C3 11.31 3 13.62 3 16 C2.01 16 1.02 16 0 16 C0 10.72 0 5.44 0 0 Z " fill="#B61C1C" transform="translate(361,48)"/>
<path d="M0 0 C0.99 0 1.98 0 3 0 C2.86980469 0.66386719 2.73960938 1.32773437 2.60546875 2.01171875 C2.17912283 4.74112952 1.88061942 7.23719232 2 10 C4.37505218 12.70848923 4.37505218 12.70848923 7 15 C7.5 18.625 7.5 18.625 7 22 C5.5 23.9375 5.5 23.9375 4 25 C3.7525 24.05125 3.505 23.1025 3.25 22.125 C2.3142923 18.91306809 2.3142923 18.91306809 -0.125 17.625 C-1.053125 17.315625 -1.053125 17.315625 -2 17 C-2.33 17.66 -2.66 18.32 -3 19 C-4.98 18.01 -6.96 17.02 -9 16 C-8.566875 15.505 -8.13375 15.01 -7.6875 14.5 C-5.77780253 11.67081856 -4.80525581 8.93238917 -3.74609375 5.70703125 C-3 4 -3 4 -1 3 C-0.67 2.01 -0.34 1.02 0 0 Z " fill="#3B7388" transform="translate(42,25)"/>
<path d="M0 0 C2.4375 2 2.4375 2 4 4 C3.67 4.66 3.34 5.32 3 6 C2.01 6 1.02 6 0 6 C-0.33 5.34 -0.66 4.68 -1 4 C-2.98 4 -4.96 4 -7 4 C-7.26932521 8.65052872 -7.26932521 8.65052872 -6 13 C-4.35 13 -2.7 13 -1 13 C-0.67 12.34 -0.34 11.68 0 11 C-0.99 11 -1.98 11 -3 11 C-3 10.01 -3 9.02 -3 8 C-0.69 8 1.62 8 4 8 C4.1875 11.375 4.1875 11.375 4 15 C0.30255904 17.46496064 -2.71032516 17.66459751 -7 17 C-9.5 15.5625 -9.5 15.5625 -11 13 C-11.76474799 8.65846194 -11.75830672 5.24362301 -9.4375 1.4375 C-6.04481874 -0.56331202 -3.87285839 -0.55326548 0 0 Z " fill="#B00B0B" transform="translate(198,47)"/>
<path d="M0 0 C0.86963379 0.23771118 0.86963379 0.23771118 1.75683594 0.48022461 C5.21220398 1.28088618 8.71910303 1.37223082 12.25 1.5625 C12.99507813 1.60568359 13.74015625 1.64886719 14.5078125 1.69335938 C16.338349 1.79896725 18.16915176 1.89994201 20 2 C20 4.31 20 6.62 20 9 C19.34 9 18.68 9 18 9 C17.67 8.34 17.34 7.68 17 7 C16.34 7 15.68 7 15 7 C14.34 7.66 13.68 8.32 13 9 C13 8.01 13 7.02 13 6 C11.68 6.33 10.36 6.66 9 7 C9 7.66 9 8.32 9 9 C8.01 9 7.02 9 6 9 C6 7.35 6 5.7 6 4 C5.67 5.65 5.34 7.3 5 9 C3.68 8.34 2.36 7.68 1 7 C0.34 7.66 -0.32 8.32 -1 9 C-1.66 9 -2.32 9 -3 9 C-3.33 8.01 -3.66 7.02 -4 6 C-5.32 6 -6.64 6 -8 6 C-8 4.68 -8 3.36 -8 2 C-5.36 2 -2.72 2 0 2 C0 1.34 0 0.68 0 0 Z " fill="#969696" transform="translate(259,72)"/>
<path d="M0 0 C0.83595703 0.12246094 1.67191406 0.24492187 2.53320312 0.37109375 C4.58918213 0.67655349 6.6391631 1.02191181 8.6875 1.375 C8.6875 3.025 8.6875 4.675 8.6875 6.375 C7.0375 5.715 5.3875 5.055 3.6875 4.375 C4.0175 4.705 4.3475 5.035 4.6875 5.375 C3.6975 6.035 2.7075 6.695 1.6875 7.375 C1.0275 6.385 0.3675 5.395 -0.3125 4.375 C-3.73493314 3.37417465 -3.73493314 3.37417465 -7.3125 3.375 C-9.13310724 4.47109517 -9.13310724 4.47109517 -10.3125 6.375 C-10.67463568 8.88789675 -10.67463568 8.88789675 -10.5 11.5625 C-10.47292969 12.46355469 -10.44585937 13.36460938 -10.41796875 14.29296875 C-10.38316406 14.98003906 -10.34835937 15.66710937 -10.3125 16.375 C-9.9825 15.715 -9.6525 15.055 -9.3125 14.375 C-7.6625 14.705 -6.0125 15.035 -4.3125 15.375 C-4.6425 16.695 -4.9725 18.015 -5.3125 19.375 C-7.625 20.0625 -7.625 20.0625 -10.3125 20.375 C-12.85094009 18.56182851 -13.30739025 17.39032925 -14.3125 14.375 C-14.5859375 12.32421875 -14.5859375 12.32421875 -14.6875 10.0625 C-14.73648437 9.32386719 -14.78546875 8.58523437 -14.8359375 7.82421875 C-12.93774539 -1.05762044 -7.63342075 -1.36160465 0 0 Z " fill="#07622B" transform="translate(333.3125,21.625)"/>
<path d="M0 0 C0.99 0 1.98 0 3 0 C3 5.61 3 11.22 3 17 C-1 16 -1 16 -2.484375 14.15234375 C-2.90203125 13.42144531 -3.3196875 12.69054687 -3.75 11.9375 C-4.17796875 11.20402344 -4.6059375 10.47054687 -5.046875 9.71484375 C-5.36140625 9.14894531 -5.6759375 8.58304688 -6 8 C-6.33 10.97 -6.66 13.94 -7 17 C-7.99 17 -8.98 17 -10 17 C-10 11.72 -10 6.44 -10 1 C-5 2 -5 2 -3.63671875 3.62890625 C-2.7578125 5.41927083 -1.87890625 7.20963542 -1 9 C-0.67 6.03 -0.34 3.06 0 0 Z " fill="#B10E0E" transform="translate(215,47)"/>
<path d="M0 0 C2.32421875 0.1328125 2.32421875 0.1328125 5 1 C6.58203125 3.6171875 6.58203125 3.6171875 7.8125 6.875 C8.23144531 7.94492187 8.65039062 9.01484375 9.08203125 10.1171875 C10 13 10 13 10 16 C8.0625 15.625 8.0625 15.625 6 15 C5.67 14.34 5.34 13.68 5 13 C3.02 13 1.04 13 -1 13 C-1.33 13.99 -1.66 14.98 -2 16 C-3.32 16 -4.64 16 -6 16 C-4.43551329 10.3856009 -2.83604813 5.13189662 0 0 Z " fill="#B40505" transform="translate(175,48)"/>
<path d="M0 0 C3.40110553 0.34011055 4.73341421 0.92091421 7.125 3.3125 C7.125 3.9725 7.125 4.6325 7.125 5.3125 C4.10080475 4.72446203 1.10741547 4.08571882 -1.875 3.3125 C-1.875 4.3025 -1.875 5.2925 -1.875 6.3125 C-1.30910156 6.44527344 -0.74320313 6.57804687 -0.16015625 6.71484375 C0.57332031 6.89144531 1.30679688 7.06804688 2.0625 7.25 C3.15884766 7.51103516 3.15884766 7.51103516 4.27734375 7.77734375 C6.125 8.3125 6.125 8.3125 7.125 9.3125 C7.375 12.25 7.375 12.25 7.125 15.3125 C3.43013897 17.77574069 1.49206908 17.70241688 -2.875 17.3125 C-4.8125 16 -4.8125 16 -5.875 14.3125 C-5.875 13.3225 -5.875 12.3325 -5.875 11.3125 C-4.885 11.3125 -3.895 11.3125 -2.875 11.3125 C-2.545 11.9725 -2.215 12.6325 -1.875 13.3125 C-0.225 13.3125 1.425 13.3125 3.125 13.3125 C3.455 12.6525 3.785 11.9925 4.125 11.3125 C2.10677083 10.85677083 0.08854167 10.40104167 -1.9296875 9.9453125 C-3.875 9.3125 -3.875 9.3125 -5.875 7.3125 C-5.43283498 2.89084977 -4.76817939 0.51828037 0 0 Z " fill="#B31313" transform="translate(244.875,46.6875)"/>
<path d="M0 0 C0.89267578 0.00644531 1.78535156 0.01289062 2.70507812 0.01953125 C4.09823242 0.04466797 4.09823242 0.04466797 5.51953125 0.0703125 C6.45990234 0.07933594 7.40027344 0.08835938 8.36914062 0.09765625 C10.69036093 0.12122194 13.01106769 0.15412134 15.33203125 0.1953125 C15.33203125 0.5253125 15.33203125 0.8553125 15.33203125 1.1953125 C14.33300781 1.24429688 13.33398438 1.29328125 12.3046875 1.34375 C11.01433594 1.41851562 9.72398438 1.49328125 8.39453125 1.5703125 C7.10675781 1.63992187 5.81898437 1.70953125 4.4921875 1.78125 C3.44933594 1.91789062 2.40648437 2.05453125 1.33203125 2.1953125 C1.00203125 2.8553125 0.67203125 3.5153125 0.33203125 4.1953125 C0.66203125 4.5253125 0.99203125 4.8553125 1.33203125 5.1953125 C1.33203125 6.1853125 1.33203125 7.1753125 1.33203125 8.1953125 C-3.00130208 8.1953125 -7.33463542 8.1953125 -11.66796875 8.1953125 C-11.66796875 7.5353125 -11.66796875 6.8753125 -11.66796875 6.1953125 C-12.32796875 6.1953125 -12.98796875 6.1953125 -13.66796875 6.1953125 C-13.99796875 6.8553125 -14.32796875 7.5153125 -14.66796875 8.1953125 C-16.31796875 8.1953125 -17.96796875 8.1953125 -19.66796875 8.1953125 C-20.79296875 4.4453125 -20.79296875 4.4453125 -19.66796875 2.1953125 C-18.42080078 2.23011719 -18.42080078 2.23011719 -17.1484375 2.265625 C-16.06175781 2.28367187 -14.97507812 2.30171875 -13.85546875 2.3203125 C-12.77652344 2.34351562 -11.69757812 2.36671875 -10.5859375 2.390625 C-6.49763471 2.11697689 -4.28405523 -0.05457395 0 0 Z " fill="#BB5D5D" transform="translate(59.66796875,63.8046875)"/>
<path d="M0 0 C3.96 0 7.92 0 12 0 C12 0.99 12 1.98 12 3 C9.03 3 6.06 3 3 3 C3 4.32 3 5.64 3 7 C5.97 7 8.94 7 12 7 C12 7.99 12 8.98 12 10 C9.03 10 6.06 10 3 10 C3 11.32 3 12.64 3 14 C5.97 14 8.94 14 12 14 C12 14.99 12 15.98 12 17 C8.04 17 4.08 17 0 17 C0 11.39 0 5.78 0 0 Z " fill="#B21616" transform="translate(378,47)"/>
<path d="M0 0 C7.26 0 14.52 0 22 0 C22 0.66 22 1.32 22 2 C21.38511719 2.25394531 20.77023437 2.50789063 20.13671875 2.76953125 C19.32847656 3.11371094 18.52023437 3.45789063 17.6875 3.8125 C16.48673828 4.31716797 16.48673828 4.31716797 15.26171875 4.83203125 C13.03043459 5.98428334 11.69512228 7.17969946 10 9 C9.67 9 9.34 9 9 9 C9 7.35 9 5.7 9 4 C7.35 4.33 5.7 4.66 4 5 C3.67 5.99 3.34 6.98 3 8 C3.99 8.33 4.98 8.66 6 9 C4.6875 11 4.6875 11 3 13 C2.01 13 1.02 13 0 13 C0 8.71 0 4.42 0 0 Z " fill="#D7E7DE" transform="translate(276,23)"/>
<path d="M0 0 C3.96 0 7.92 0 12 0 C12 0.66 12 1.32 12 2 C9.03 2 6.06 2 3 2 C3 3.32 3 4.64 3 6 C5.97 6 8.94 6 12 6 C12 6.99 12 7.98 12 9 C9.36 9 6.72 9 4 9 C4 10.32 4 11.64 4 13 C6.97 13 9.94 13 13 13 C13 13.99 13 14.98 13 16 C8.71 16 4.42 16 0 16 C0 10.72 0 5.44 0 0 Z " fill="#AB0F0E" transform="translate(315,48)"/>
<path d="M0 0 C8.58 0 17.16 0 26 0 C26 2.64 26 5.28 26 8 C23.37812506 6.95125002 22.20628639 6.35068687 20.75 3.875 C20.5025 3.25625 20.255 2.6375 20 2 C20 3.65 20 5.3 20 7 C19.01 6.34 18.02 5.68 17 5 C16.34 5.66 15.68 6.32 15 7 C12 5 12 5 11 2 C11 3.65 11 5.3 11 7 C8 6 8 6 6.8125 3.9375 C6.544375 3.298125 6.27625 2.65875 6 2 C6 3.65 6 5.3 6 7 C5.67 6.01 5.34 5.02 5 4 C4.34 4 3.68 4 3 4 C3 4.66 3 5.32 3 6 C2.34 6 1.68 6 1 6 C1.33 4.68 1.66 3.36 2 2 C1.34 2 0.68 2 0 2 C0 1.34 0 0.68 0 0 Z " fill="#4A4A4A" transform="translate(165,7)"/>
<path d="M0 0 C17.49 0 34.98 0 53 0 C53.495 0.99 53.495 0.99 54 2 C39.81 2 25.62 2 11 2 C11 3.65 11 5.3 11 7 C10.34 6.34 9.68 5.68 9 5 C8.030625 4.690625 7.06125 4.38125 6.0625 4.0625 C3 3 3 3 0 0 Z " fill="#00531B" transform="translate(256,21)"/>
<path d="M0 0 C2 1 2 1 2.78125 2.77734375 C3.0184375 3.49019531 3.255625 4.20304687 3.5 4.9375 C4.42402464 7.70455204 4.89137369 8.89137369 7 11 C10.09926819 10.67801034 10.09926819 10.67801034 13 10 C13 9.34 13 8.68 13 8 C12.01 8.33 11.02 8.66 10 9 C9.3125 7.1875 9.3125 7.1875 9 5 C10.4375 3.25 10.4375 3.25 12 2 C15 3 15 3 16 5 C16.45371143 12.14595496 16.45371143 12.14595496 14.9375 15 C11.82090489 16.60856522 9.43737531 16.42213381 6 16 C2.65156918 13.55655048 1.10657118 10.96521339 0 7 C-0.07646165 4.6679198 -0.09143299 2.33154122 0 0 Z " fill="#0E622E" transform="translate(151,24)"/>
<path d="M0 0 C1.4375 2.0625 1.4375 2.0625 2 4 C1.01 4.33 0.02 4.66 -1 5 C-1.66 4.34 -2.32 3.68 -3 3 C-4.32 3 -5.64 3 -7 3 C-8.04214691 7.61507774 -8.04214691 7.61507774 -7 12 C-3.97580475 11.41196203 -0.98241547 10.77321882 2 10 C1.42655063 12.86724686 1.1385485 13.8614515 -1 16 C-4.78337161 16.42037462 -7.12048598 16.51868776 -10.4375 14.5625 C-12.75364638 10.76401993 -12.90388217 7.32911985 -12 3 C-8.44749846 -1.5213656 -5.35396416 -1.61629107 0 0 Z " fill="#B10B0B" transform="translate(287,48)"/>
<path d="M0 0 C1.4375 2.0625 1.4375 2.0625 2 4 C1.01 4.33 0.02 4.66 -1 5 C-1.66 4.34 -2.32 3.68 -3 3 C-4.32 3 -5.64 3 -7 3 C-8.04214691 7.61507774 -8.04214691 7.61507774 -7 12 C-3.97580475 11.41196203 -0.98241547 10.77321882 2 10 C1.42655063 12.86724686 1.1385485 13.8614515 -1 16 C-4.78337161 16.42037462 -7.12048598 16.51868776 -10.4375 14.5625 C-12.75364638 10.76401993 -12.90388217 7.32911985 -12 3 C-8.44749846 -1.5213656 -5.35396416 -1.61629107 0 0 Z " fill="#B00A0A" transform="translate(310,48)"/>
<path d="M0 0 C0.495 0.99 0.495 0.99 1 2 C-2.69256116 2.99068714 -4.44327811 3.27243837 -7.9375 1.5625 C-13.70503023 -1.24367502 -20.77639752 -0.68479768 -27 0 C-29.01990434 0.95915925 -31.02555605 1.95044243 -33 3 C-33.66 2.67 -34.32 2.34 -35 2 C-33.42065361 1.01441551 -31.83634827 0.03677459 -30.25 -0.9375 C-29.36828125 -1.48277344 -28.4865625 -2.02804688 -27.578125 -2.58984375 C-18.2740512 -7.67889018 -8.8719822 -4.7528476 0 0 Z " fill="#D23E43" transform="translate(59,18)"/>
<path d="M0 0 C2.375 2 2.375 2 4 4 C0.64896563 5.11701146 -1.59004761 4.737287 -5 4 C-6.41577477 5.18424326 -6.41577477 5.18424326 -6.0625 8.5625 C-6.041875 9.696875 -6.02125 10.83125 -6 12 C-4.35 12.33 -2.7 12.66 -1 13 C-0.67 12.34 -0.34 11.68 0 11 C1.32 11 2.64 11 4 11 C2.25 15.875 2.25 15.875 0 17 C-3.46500939 17.37663145 -5.36348003 17.38526209 -8.375 15.5625 C-10.77513557 11.77767083 -10.7842297 8.3612774 -10 4 C-7.35478334 -0.1713032 -4.79556761 -0.79926127 0 0 Z " fill="#AF0303" transform="translate(99,47)"/>
<path d="M0 0 C0.94875 0.226875 1.8975 0.45375 2.875 0.6875 C5.86984965 1.07003542 8.87159815 1.37996212 11.875 1.6875 C11.875 4.30863708 11.56207555 6.19685112 10.875 8.6875 C9 8.375 9 8.375 6.875 7.6875 C6.215 6.6975 5.555 5.7075 4.875 4.6875 C4.545 6.3375 4.215 7.9875 3.875 9.6875 C3.215 8.6975 2.555 7.7075 1.875 6.6875 C1.276875 7.1825 0.67875 7.6775 0.0625 8.1875 C-2.125 9.6875 -2.125 9.6875 -5.125 9.6875 C-5.41796875 3.6328125 -5.41796875 3.6328125 -5.125 1.6875 C-2.125 -0.3125 -2.125 -0.3125 0 0 Z " fill="#7E7E7E" transform="translate(222.125,5.3125)"/>
<path d="M0 0 C6.93 0.495 6.93 0.495 14 1 C14 2.65 14 4.3 14 6 C13.01 5.67 12.02 5.34 11 5 C11.33 5.99 11.66 6.98 12 8 C7.375 12.875 7.375 12.875 4 14 C2.4375 12.75 2.4375 12.75 1 11 C1.3125 8.8125 1.3125 8.8125 2 7 C2.33 7.99 2.66 8.98 3 10 C3.66 10 4.32 10 5 10 C5.33 8.35 5.66 6.7 6 5 C4.02 4.01 2.04 3.02 0 2 C0 1.34 0 0.68 0 0 Z " fill="#146634" transform="translate(98,22)"/>
<path d="M0 0 C-0.99 0.33 -1.98 0.66 -3 1 C-3 7.27 -3 13.54 -3 20 C-3.99 19.01 -4.98 18.02 -6 17 C-5.6875 14.3125 -5.6875 14.3125 -5 12 C-7.475 11.01 -7.475 11.01 -10 10 C-10 7 -10 7 -9.375 5 C-8.70113419 2.6915506 -8.70113419 2.6915506 -11 0 C-7.01803543 -1.05404945 -4.01804691 -0.84098656 0 0 Z " fill="#267244" transform="translate(194,23)"/>
<path d="M0 0 C1.32 0 2.64 0 4 0 C2.93191573 2.21832888 1.84556315 4.22238907 0.4375 6.25 C-1.46633256 9.89211445 -1.65392949 12.91636799 -2 17 C-3.32 17 -4.64 17 -6 17 C-6.10957031 16.34773438 -6.21914062 15.69546875 -6.33203125 15.0234375 C-7.26508962 9.8802377 -8.34784083 5.58100221 -11 1 C-8.625 1.25 -8.625 1.25 -6 2 C-4.6875 4.0625 -4.6875 4.0625 -4 6 C-3.4225 5.01 -2.845 4.02 -2.25 3 C-1.5075 2.01 -0.765 1.02 0 0 Z " fill="#B32829" transform="translate(136,47)"/>
<path d="M0 0 C0.33 0 0.66 0 1 0 C1 3.63 1 7.26 1 11 C2.65 10.01 4.3 9.02 6 8 C5.34 6.35 4.68 4.7 4 3 C4.66 2.34 5.32 1.68 6 1 C8.125 1.375 8.125 1.375 10 2 C10.75 4.125 10.75 4.125 11 7 C9.25462343 10.06945534 7.49346035 12.50653965 5 15 C0.44444444 14.44444444 0.44444444 14.44444444 -1 13 C-1.09886353 11.37747508 -1.12971167 9.75052727 -1.125 8.125 C-1.12757812 7.24070312 -1.13015625 6.35640625 -1.1328125 5.4453125 C-1 3 -1 3 0 0 Z " fill="#1B6C3A" transform="translate(127,25)"/>
<path d="M0 0 C2.31 0 4.62 0 7 0 C7.33 1.98 7.66 3.96 8 6 C5 8 5 8 2 9 C0.31461399 10.99665314 0.31461399 10.99665314 -1 13 C-3.86724686 12.42655063 -4.8614515 12.1385485 -7 10 C-6.625 7.875 -6.625 7.875 -6 6 C-4.515 6.99 -4.515 6.99 -3 8 C-1.0549 5.08235 -0.54723683 3.37462715 0 0 Z " fill="#1F6D3E" transform="translate(267,23)"/>
<path d="M0 0 C2.5 1.75 2.5 1.75 5 4 C5 6.66666667 5 9.33333333 5 12 C3.54263913 12.19491452 2.08405407 12.38069358 0.625 12.5625 C-0.18710937 12.66691406 -0.99921875 12.77132812 -1.8359375 12.87890625 C-4 13 -4 13 -6 12 C-4.74458443 9.48916886 -3.49936512 9.12874554 -1 8 C-1 7.34 -1 6.68 -1 6 C-4.63 5.67 -8.26 5.34 -12 5 C-11.67 4.34 -11.34 3.68 -11 3 C-9.35 3 -7.7 3 -6 3 C-5.67 2.34 -5.34 1.68 -5 1 C-4.01 1 -3.02 1 -2 1 C-2 1.66 -2 2.32 -2 3 C-1.34 3 -0.68 3 0 3 C0 2.01 0 1.02 0 0 Z " fill="#F1D8D7" transform="translate(50,69)"/>
<path d="M0 0 C0.05416188 1.60379341 0.09286638 3.20811406 0.125 4.8125 C0.14820313 5.70582031 0.17140625 6.59914063 0.1953125 7.51953125 C0 10 0 10 -2 13 C-2 12.34 -2 11.68 -2 11 C-3.11375 10.773125 -4.2275 10.54625 -5.375 10.3125 C-9 9 -9 9 -10.4375 6.375 C-10.7159375 5.199375 -10.7159375 5.199375 -11 4 C-4.5 0 -4.5 0 0 0 Z " fill="#0E642F" transform="translate(299,25)"/>
<path d="M0 0 C2.01822917 0.29296875 4.03645833 0.5859375 6.0546875 0.87890625 C8.08140667 1.1684297 8.08140667 1.1684297 10 0 C11 3 11 3 10 5.4375 C8.91095711 8.2281724 8.98285051 9.25369638 10 12 C7.69 12 5.38 12 3 12 C2.87625 11.360625 2.7525 10.72125 2.625 10.0625 C2.41875 9.381875 2.2125 8.70125 2 8 C1.34 7.67 0.68 7.34 0 7 C0.66 5.02 1.32 3.04 2 1 C1.34 0.67 0.68 0.34 0 0 Z " fill="#26526B" transform="translate(36,48)"/>
<path d="M0 0 C3.07102629 0.3745154 3.49021016 1.15386475 5.5625 3.3125 C9.20345979 4.28172222 12.6204613 4.42023541 16.375 4.375 C17.35082031 4.36597656 18.32664062 4.35695313 19.33203125 4.34765625 C20.06808594 4.33605469 20.80414063 4.32445312 21.5625 4.3125 C21.5625 4.9725 21.5625 5.6325 21.5625 6.3125 C12.6525 6.3125 3.7425 6.3125 -5.4375 6.3125 C-3.98716887 0.5111755 -3.98716887 0.5111755 0 0 Z " fill="#DDEEE5" transform="translate(261.4375,14.6875)"/>
<path d="M0 0 C5.90596139 0.42185439 11.17156272 1.33953882 16 5 C17 7.75 17 7.75 17 10 C16.01 10 15.02 10 14 10 C13.67 9.34 13.34 8.68 13 8 C10.77702487 7.60691577 10.77702487 7.60691577 8.1875 7.5 C4.60161264 7.28813073 2.12498594 6.80651868 -1 5 C-0.67 3.35 -0.34 1.7 0 0 Z " fill="#0C642E" transform="translate(122,12)"/>
<path d="M0 0 C7.59 0 15.18 0 23 0 C23 0.66 23 1.32 23 2 C21.68 2 20.36 2 19 2 C19 8.27 19 14.54 19 21 C18.34 20.67 17.68 20.34 17 20 C16.65625 17.85546875 16.65625 17.85546875 16.5 15.1875 C16.28813073 11.60161264 15.80651868 9.12498594 14 6 C14.66 6 15.32 6 16 6 C16.33 4.68 16.66 3.36 17 2 C11.72 2 6.44 2 1 2 C0.67 1.34 0.34 0.68 0 0 Z " fill="#025820" transform="translate(95,21)"/>
<path d="M0 0 C3.10240541 1.73048744 4.16200344 2.64925516 6.1875 5.6875 C5.8575 6.3475 5.5275 7.0075 5.1875 7.6875 C4.5275 7.6875 3.8675 7.6875 3.1875 7.6875 C3.001875 7.089375 2.81625 6.49125 2.625 5.875 C0.45188956 2.56809281 -2.08196428 1.53341267 -5.8125 0.6875 C-15.07948134 -0.3951068 -15.07948134 -0.3951068 -23.5 2.75 C-24.263125 3.389375 -25.02625 4.02875 -25.8125 4.6875 C-26.8025 4.3575 -27.7925 4.0275 -28.8125 3.6875 C-29.1425 3.0275 -29.4725 2.3675 -29.8125 1.6875 C-20.77381442 -3.79939856 -9.60193495 -4.59222976 0 0 Z " fill="#F0EDEE" transform="translate(52.8125,19.3125)"/>
<path d="M0 0 C0.66 0.66 1.32 1.32 2 2 C4.06874034 2.6425235 4.06874034 2.6425235 6 3 C6 3.66 6 4.32 6 5 C4.68 5 3.36 5 2 5 C2 11.27 2 17.54 2 24 C1.34 23.67 0.68 23.34 0 23 C-0.33 17.06 -0.66 11.12 -1 5 C-2.670625 5.020625 -4.34125 5.04125 -6.0625 5.0625 C-10.49733641 5.06822976 -14.6391754 4.77525771 -19 4 C-19 3.67 -19 3.34 -19 3 C-13.06 3 -7.12 3 -1 3 C-0.67 2.01 -0.34 1.02 0 0 Z " fill="#035620" transform="translate(195,18)"/>
<path d="M0 0 C4.95906684 2.42985242 4.95906684 2.42985242 6.33203125 5.17578125 C5.09453125 4.84578125 3.85703125 4.51578125 2.58203125 4.17578125 C-3.10357953 2.91231219 -8.868994 2.58369374 -14.66796875 3.17578125 C-15.65796875 3.83578125 -16.64796875 4.49578125 -17.66796875 5.17578125 C-19.85546875 4.80078125 -19.85546875 4.80078125 -21.66796875 4.17578125 C-21.00796875 4.17578125 -20.34796875 4.17578125 -19.66796875 4.17578125 C-19.54421875 3.53640625 -19.42046875 2.89703125 -19.29296875 2.23828125 C-19.08671875 1.55765625 -18.88046875 0.87703125 -18.66796875 0.17578125 C-13.5348957 -2.39075528 -5.35804183 -1.65526622 0 0 Z " fill="#46829F" transform="translate(49.66796875,19.82421875)"/>
<path d="M0 0 C4.29 0 8.58 0 13 0 C13 0.99 13 1.98 13 3 C11.35 3 9.7 3 8 3 C8 7.62 8 12.24 8 17 C7.01 17 6.02 17 5 17 C5 12.38 5 7.76 5 3 C3.35 3 1.7 3 0 3 C0 2.01 0 1.02 0 0 Z " fill="#AC0101" transform="translate(346,47)"/>
<path d="M0 0 C4.29 0 8.58 0 13 0 C13 0.99 13 1.98 13 3 C11.35 3 9.7 3 8 3 C8 7.62 8 12.24 8 17 C7.01 17 6.02 17 5 17 C5 12.38 5 7.76 5 3 C3.35 3 1.7 3 0 3 C0 2.01 0 1.02 0 0 Z " fill="#AF0404" transform="translate(254,47)"/>
<path d="M0 0 C0.99 0.66 1.98 1.32 3 2 C5.50896686 2.45601261 5.50896686 2.45601261 8.1875 2.625 C9.08855469 2.69976563 9.98960937 2.77453125 10.91796875 2.8515625 C11.60503906 2.90054687 12.29210937 2.94953125 13 3 C13.33 3.99 13.66 4.98 14 6 C15.65 5.67 17.3 5.34 19 5 C19.33 5.66 19.66 6.32 20 7 C15.38 7 10.76 7 6 7 C5.34 11.62 4.68 16.24 4 21 C3.67 21 3.34 21 3 21 C3 16.05 3 11.1 3 6 C1.35 5.67 -0.3 5.34 -2 5 C-1.125 1.125 -1.125 1.125 0 0 Z " fill="#287345" transform="translate(122,16)"/>
<path d="M0 0 C4.55555556 0.55555556 4.55555556 0.55555556 6 2 C6.1875 5.4375 6.1875 5.4375 6 9 C5.34 9.66 4.68 10.32 4 11 C-0.55555556 10.44444444 -0.55555556 10.44444444 -2 9 C-2.1875 5.5625 -2.1875 5.5625 -2 2 C-1.34 1.34 -0.68 0.68 0 0 Z " fill="#FCFAF9" transform="translate(227,50)"/>
<path d="M0 0 C2.0625 0.4375 2.0625 0.4375 4 1 C4.75 3.125 4.75 3.125 5 6 C2.99323374 9.6551814 1.48211875 11.6785875 -2 14 C-4.1875 13.625 -4.1875 13.625 -6 13 C-6 12.01 -6 11.02 -6 10 C-5.195625 9.71125 -4.39125 9.4225 -3.5625 9.125 C-0.8673532 8.26737432 -0.8673532 8.26737432 0 6 C-0.66 5.67 -1.32 5.34 -2 5 C-1.125 1.125 -1.125 1.125 0 0 Z " fill="#166936" transform="translate(362,26)"/>
<path d="M0 0 C1.65 0 3.3 0 5 0 C7 2 7 2 7.25 5.5 C7 9 7 9 5 11 C3.35 11 1.7 11 0 11 C0 7.37 0 3.74 0 0 Z " fill="#F8ECEB" transform="translate(151,50)"/>
<path d="M0 0 C3.96 0 7.92 0 12 0 C11.01 0.495 11.01 0.495 10 1 C9.67 1.66 9.34 2.32 9 3 C6.03 2.505 6.03 2.505 3 2 C3 3.65 3 5.3 3 7 C3.99 7 4.98 7 6 7 C6 7.66 6 8.32 6 9 C5.01 9 4.02 9 3 9 C3 11.31 3 13.62 3 16 C2.01 16 1.02 16 0 16 C0 10.72 0 5.44 0 0 Z " fill="#A80A08" transform="translate(361,48)"/>
<path d="M0 0 C4.29 0 8.58 0 13 0 C13 0.66 13 1.32 13 2 C11.35 2 9.7 2 8 2 C8 6.62 8 11.24 8 16 C7.01 16 6.02 16 5 16 C5 11.38 5 6.76 5 2 C3.35 2 1.7 2 0 2 C0 1.34 0 0.68 0 0 Z " fill="#AA0101" transform="translate(111,48)"/>
<path d="M0 0 C7.26 0 14.52 0 22 0 C22 0.66 22 1.32 22 2 C18.37 2 14.74 2 11 2 C11.45822468 5.46941546 11.89131683 8.67395049 13 12 C11.68 12 10.36 12 9 12 C9 8.7 9 5.4 9 2 C6.36 2 3.72 2 1 2 C0.67 1.34 0.34 0.68 0 0 Z " fill="#01561F" transform="translate(148,21)"/>
<path d="M0 0 C0.33 0.66 0.66 1.32 1 2 C3.02463255 2.65213292 3.02463255 2.65213292 5 3 C4.67 5.31 4.34 7.62 4 10 C2.35 9.01 0.7 8.02 -1 7 C-1 7.66 -1 8.32 -1 9 C-2.875 8.75 -2.875 8.75 -5 8 C-6.25 5.9375 -6.25 5.9375 -7 4 C-4.69 2.68 -2.38 1.36 0 0 Z " fill="#136735" transform="translate(383,25)"/>
<path d="M0 0 C4.95 0 9.9 0 15 0 C15 2.31 15 4.62 15 7 C14.34 7 13.68 7 13 7 C12.67 6.34 12.34 5.68 12 5 C11.34 5 10.68 5 10 5 C9.34 5.66 8.68 6.32 8 7 C8 6.01 8 5.02 8 4 C6.02 4.66 4.04 5.32 2 6 C2 4.68 2 3.36 2 2 C1.34 1.34 0.68 0.68 0 0 Z " fill="#A3A3A3" transform="translate(264,74)"/>
<path d="M0 0 C0.33 0.99 0.66 1.98 1 3 C0.01 4.485 0.01 4.485 -1 6 C-1 5.34 -1 4.68 -1 4 C-1.66 4 -2.32 4 -3 4 C-3.33 4.66 -3.66 5.32 -4 6 C-4 4.68 -4 3.36 -4 2 C-4.66 2 -5.32 2 -6 2 C-6.33 3.65 -6.66 5.3 -7 7 C-7.66 5.68 -8.32 4.36 -9 3 C-9.33 3.99 -9.66 4.98 -10 6 C-11.65 6.33 -13.3 6.66 -15 7 C-15 5.35 -15 3.7 -15 2 C-10.13948404 -0.59227518 -5.34728867 -0.18689553 0 0 Z " fill="#B74848" transform="translate(49,74)"/>
<path d="M0 0 C7 2 7 2 8.4375 4.125 C8.7159375 5.053125 8.7159375 5.053125 9 6 C8.01 7.485 8.01 7.485 7 9 C6.34 9 5.68 9 5 9 C4.67 8.34 4.34 7.68 4 7 C1.41073669 9.58926331 1.62601957 11.02705279 1.375 14.625 C1.30023438 15.62789062 1.22546875 16.63078125 1.1484375 17.6640625 C1.09945312 18.43492188 1.05046875 19.20578125 1 20 C0.34 19.67 -0.32 19.34 -1 19 C-0.67 12.73 -0.34 6.46 0 0 Z " fill="#E3F1E9" transform="translate(96,23)"/>
<path d="M0 0 C2.31 0 4.62 0 7 0 C7 3.3 7 6.6 7 10 C9.64 9.34 12.28 8.68 15 8 C14.67 9.32 14.34 10.64 14 12 C11.25 12.75 11.25 12.75 8 13 C3.85463714 10.23642476 3.08497454 6.70155636 2 2 C1.01 2.495 1.01 2.495 0 3 C0 2.01 0 1.02 0 0 Z " fill="#CAE0D4" transform="translate(150,23)"/>
<path d="M0 0 C2.31 0.66 4.62 1.32 7 2 C7 2.99 7 3.98 7 5 C6.34 5.66 5.68 6.32 5 7 C5 8.32 5 9.64 5 11 C3.68 11 2.36 11 1 11 C1 13.97 1 16.94 1 20 C0.67 20 0.34 20 0 20 C0 13.4 0 6.8 0 0 Z " fill="#EBF6EF" transform="translate(174,23)"/>
<path d="M0 0 C1.9375 1.125 1.9375 1.125 4 3 C4.75 6.1875 4.75 6.1875 5 9 C3.35 9 1.7 9 0 9 C-0.33 10.98 -0.66 12.96 -1 15 C-2.32 15 -3.64 15 -5 15 C-1.92482916 4.44191344 -1.92482916 4.44191344 0 0 Z " fill="#BE4241" transform="translate(174,49)"/>
<path d="M0 0 C2.0625 0.4375 2.0625 0.4375 4 1 C3.01 1.33 2.02 1.66 1 2 C0.67 2.99 0.34 3.98 0 5 C1.99983534 4.20882096 1.99983534 4.20882096 4 3 C4.33 2.01 4.66 1.02 5 0 C8.66666667 0 12.33333333 0 16 0 C16 3 16 3 15 6 C14.34 6 13.68 6 13 6 C12.87625 5.360625 12.7525 4.72125 12.625 4.0625 C12.41875 3.381875 12.2125 2.70125 12 2 C11.34 1.67 10.68 1.34 10 1 C9.67 2.65 9.34 4.3 9 6 C8.67 4.68 8.34 3.36 8 2 C7.34 2 6.68 2 6 2 C6 3.32 6 4.64 6 6 C3.69 6 1.38 6 -1 6 C-1.042721 4.33388095 -1.04063832 2.66617115 -1 1 C-0.67 0.67 -0.34 0.34 0 0 Z " fill="#AA3231" transform="translate(6,66)"/>
<path d="M0 0 C3.3 0 6.6 0 10 0 C10 0.33 10 0.66 10 1 C7.03 1 4.06 1 1 1 C1 5.95 1 10.9 1 16 C1.99 15.34 2.98 14.68 4 14 C5.99172182 13.30899447 7.99161804 12.64097297 10 12 C10.66 11.67 11.32 11.34 12 11 C12.66 11.66 13.32 12.32 14 13 C12.625 15 12.625 15 10 17 C6.59290617 17.36313853 3.4417386 17.18114414 0 17 C0 11.39 0 5.78 0 0 Z " fill="#B94848" transform="translate(147,47)"/>
<path d="M0 0 C2.02907167 3.3146667 2.12742133 5.4315979 1.625 9.25 C1.45871094 10.58804688 1.45871094 10.58804688 1.2890625 11.953125 C1.14597656 12.96632813 1.14597656 12.96632813 1 14 C0.67 14 0.34 14 0 14 C-0.33 11.69 -0.66 9.38 -1 7 C-1.66 7.66 -2.32 8.32 -3 9 C-4.32 9 -5.64 9 -7 9 C-7.125 6.625 -7.125 6.625 -7 4 C-6.34 3.34 -5.68 2.68 -5 2 C-2.375 2.375 -2.375 2.375 0 3 C0 2.01 0 1.02 0 0 Z " fill="#0E6431" transform="translate(354,23)"/>
<path d="M0 0 C3.40110553 0.34011055 4.73341421 0.92091421 7.125 3.3125 C7.125 3.9725 7.125 4.6325 7.125 5.3125 C4.10080475 4.72446203 1.10741547 4.08571882 -1.875 3.3125 C-1.875 4.3025 -1.875 5.2925 -1.875 6.3125 C-1.215 6.6425 -0.555 6.9725 0.125 7.3125 C-0.865 7.3125 -1.855 7.3125 -2.875 7.3125 C-3.205 7.9725 -3.535 8.6325 -3.875 9.3125 C-4.535 8.6525 -5.195 7.9925 -5.875 7.3125 C-5.43283498 2.89084977 -4.76817939 0.51828037 0 0 Z " fill="#B12A2B" transform="translate(244.875,46.6875)"/>
<path d="M0 0 C0.66 0 1.32 0 2 0 C2 1.32 2 2.64 2 4 C2.75925781 3.96519531 3.51851563 3.93039062 4.30078125 3.89453125 C5.79158203 3.85392578 5.79158203 3.85392578 7.3125 3.8125 C8.79169922 3.76029297 8.79169922 3.76029297 10.30078125 3.70703125 C13 4 13 4 14.85546875 5.51171875 C15.23316406 6.00285156 15.61085938 6.49398438 16 7 C15.67 7.99 15.34 8.98 15 10 C14.34 10 13.68 10 13 10 C13 9.01 13 8.02 13 7 C11.84371094 7.03480469 11.84371094 7.03480469 10.6640625 7.0703125 C9.66117187 7.08835937 8.65828125 7.10640625 7.625 7.125 C6.62726563 7.14820313 5.62953125 7.17140625 4.6015625 7.1953125 C2 7 2 7 0 5 C-0.125 2.375 -0.125 2.375 0 0 Z " fill="#0F622F" transform="translate(352,12)"/>
<path d="M0 0 C6.6 0 13.2 0 20 0 C20 0.33 20 0.66 20 1 C19.00097656 1.04898438 18.00195312 1.09796875 16.97265625 1.1484375 C15.68230469 1.22320312 14.39195313 1.29796875 13.0625 1.375 C11.77472656 1.44460937 10.48695312 1.51421875 9.16015625 1.5859375 C8.11730469 1.72257812 7.07445312 1.85921875 6 2 C5.67 2.66 5.34 3.32 5 4 C5.33 4.33 5.66 4.66 6 5 C6 5.99 6 6.98 6 8 C4.02 8 2.04 8 0 8 C0 5.36 0 2.72 0 0 Z " fill="#CECDD8" transform="translate(55,64)"/>
<path d="M0 0 C0.33 0 0.66 0 1 0 C1.33 2.31 1.66 4.62 2 7 C2.66 6.01 3.32 5.02 4 4 C5.32 4.33 6.64 4.66 8 5 C7.67 6.65 7.34 8.3 7 10 C5.35 10.33 3.7 10.66 2 11 C-2 6.375 -2 6.375 -2 3 C-1.34 3 -0.68 3 0 3 C0 2.01 0 1.02 0 0 Z " fill="#216D3E" transform="translate(220,31)"/>
<path d="M0 0 C0.66 0 1.32 0 2 0 C2.66 2.97 3.32 5.94 4 9 C4.33 8.34 4.66 7.68 5 7 C6.65 7.33 8.3 7.66 10 8 C9.67 9.32 9.34 10.64 9 12 C6.6875 12.6875 6.6875 12.6875 4 13 C1.46155991 11.18682851 1.00510975 10.01532925 0 7 C-0.03954234 4.66700175 -0.04401732 2.33291811 0 0 Z " fill="#116431" transform="translate(319,29)"/>
<path d="M0 0 C4.875 1.75 4.875 1.75 6 4 C5.1028125 4.37125 5.1028125 4.37125 4.1875 4.75 C1.864026 5.86434075 1.864026 5.86434075 0.5625 8.125 C-1 10 -1 10 -3.6875 10.25 C-4.450625 10.1675 -5.21375 10.085 -6 10 C-6.33 8.35 -6.66 6.7 -7 5 C-6.34 4.67 -5.68 4.34 -5 4 C-5 4.99 -5 5.98 -5 7 C-4.34 7 -3.68 7 -3 7 C-2.67 6.01 -2.34 5.02 -2 4 C-1.34 3.34 -0.68 2.68 0 2 C0 1.34 0 0.68 0 0 Z " fill="#116633" transform="translate(336,25)"/>
<path d="M0 0 C1.65 0 3.3 0 5 0 C3.68 0.33 2.36 0.66 1 1 C1 1.99 1 2.98 1 4 C3.91517292 2.92598892 5.77810176 2.22189824 8 0 C8 2.31 8 4.62 8 7 C7.67 6.34 7.34 5.68 7 5 C6.030625 5.33 5.06125 5.66 4.0625 6 C1 7 1 7 0 7 C-0.33 7.66 -0.66 8.32 -1 9 C-1.99 8.67 -2.98 8.34 -4 8 C-4 6.68 -4 5.36 -4 4 C-4.66 4 -5.32 4 -6 4 C-6 3.34 -6 2.68 -6 2 C-4.35 2 -2.7 2 -1 2 C-0.67 1.34 -0.34 0.68 0 0 Z " fill="#383838" transform="translate(208,8)"/>
<path d="M0 0 C1.32 0.33 2.64 0.66 4 1 C3.67 5.95 3.34 10.9 3 16 C2.01 16 1.02 16 0 16 C0 10.72 0 5.44 0 0 Z " fill="#9E0404" transform="translate(205,48)"/>
<path d="M0 0 C3.95618991 0.56516999 5.08509807 1.40892553 7.5 4.5 C7.17 5.16 6.84 5.82 6.5 6.5 C5.51 6.5 4.52 6.5 3.5 6.5 C3.17 5.84 2.84 5.18 2.5 4.5 C0.52 4.5 -1.46 4.5 -3.5 4.5 C-3.5 5.16 -3.5 5.82 -3.5 6.5 C-4.82 5.84 -6.14 5.18 -7.5 4.5 C-5.08509807 1.40892553 -3.95618991 0.56516999 0 0 Z " fill="#B21A1B" transform="translate(194.5,46.5)"/>
<path d="M0 0 C1.23556641 0.01740234 1.23556641 0.01740234 2.49609375 0.03515625 C3.32238281 0.04417969 4.14867187 0.05320312 5 0.0625 C5.63808594 0.07410156 6.27617188 0.08570312 6.93359375 0.09765625 C6.60359375 2.40765625 6.27359375 4.71765625 5.93359375 7.09765625 C4.61359375 7.09765625 3.29359375 7.09765625 1.93359375 7.09765625 C1.93359375 5.77765625 1.93359375 4.45765625 1.93359375 3.09765625 C0.61359375 2.76765625 -0.70640625 2.43765625 -2.06640625 2.09765625 C-2.06640625 3.08765625 -2.06640625 4.07765625 -2.06640625 5.09765625 C-1.07640625 4.76765625 -0.08640625 4.43765625 0.93359375 4.09765625 C0.60359375 5.08765625 0.27359375 6.07765625 -0.06640625 7.09765625 C-1.38640625 6.76765625 -2.70640625 6.43765625 -4.06640625 6.09765625 C-2.99738005 0.14165312 -2.99738005 0.14165312 0 0 Z " fill="#B74E4E" transform="translate(27.06640625,73.90234375)"/>
<path d="M0 0 C9.25 0 9.25 0 13 1 C12.67 2.65 12.34 4.3 12 6 C11.21625 5.814375 10.4325 5.62875 9.625 5.4375 C7.02910225 4.74037734 7.02910225 4.74037734 5 6 C5 4.35 5 2.7 5 1 C4.34 1 3.68 1 3 1 C3 2.65 3 4.3 3 6 C2.34 6 1.68 6 1 6 C0.67 4.02 0.34 2.04 0 0 Z " fill="#B44949" transform="translate(62,66)"/>
<path d="M0 0 C0.66 0 1.32 0 2 0 C3.87393242 3.74786484 3.41441737 8.28834743 3.62109375 12.421875 C3.98839199 15.89038213 4.76846179 18.74913801 6 22 C1.80968846 18.15007791 0.16569199 13.6234565 -0.1875 8.03125 C-0.1875 5.34733123 -0.13303365 2.68038163 0 0 Z " fill="#58A3B2" transform="translate(18,35)"/>
<path d="M0 0 C0.99 0 1.98 0 3 0 C3 5.28 3 10.56 3 16 C2.01 16 1.02 16 0 16 C0 10.72 0 5.44 0 0 Z " fill="#AE0909" transform="translate(106,48)"/>
<path d="M0 0 C0.99 0 1.98 0 3 0 C3 5.28 3 10.56 3 16 C2.01 16 1.02 16 0 16 C0 10.72 0 5.44 0 0 Z " fill="#AB0202" transform="translate(164,48)"/>
<path d="M0 0 C0.99 0 1.98 0 3 0 C3 5.28 3 10.56 3 16 C2.01 16 1.02 16 0 16 C0 10.72 0 5.44 0 0 Z " fill="#AA0102" transform="translate(269,48)"/>
<path d="M0 0 C2.3125 0.125 2.3125 0.125 5 1 C6.8125 4.0625 6.8125 4.0625 8 7 C7.67 7.33 7.34 7.66 7 8 C6.63239269 10.32817964 6.29758419 12.6618385 6 15 C6.66 15 7.32 15 8 15 C8 13.02 8 11.04 8 9 C8.33 9 8.66 9 9 9 C9 11.31 9 13.62 9 16 C7.68 16 6.36 16 5 16 C4.89042969 15.34773438 4.78085938 14.69546875 4.66796875 14.0234375 C3.73491038 8.8802377 2.65215917 4.58100221 0 0 Z " fill="#AF3234" transform="translate(125,48)"/>
<path d="M0 0 C2.31 0 4.62 0 7 0 C7 0.66 7 1.32 7 2 C5.8553125 2.5878125 5.8553125 2.5878125 4.6875 3.1875 C1.02360316 5.65850019 0.47271683 7.89189515 -1 12 C-1.66 12 -2.32 12 -3 12 C-3.34833144 7.12335991 -2.41685712 4.22949995 0 0 Z " fill="#09622B" transform="translate(221,22)"/>
<path d="M0 0 C6.51722911 0.33709806 9.32539218 1.44225737 14 6 C13.67 6.66 13.34 7.32 13 8 C12.34 7.525625 11.68 7.05125 11 6.5625 C7.2066972 4.58682146 4.24475932 4.35972537 0 4 C0 2.68 0 1.36 0 0 Z " fill="#256F42" transform="translate(97,12)"/>
<path d="M0 0 C0.33 1.32 0.66 2.64 1 4 C4.3 4 7.6 4 11 4 C11 4.99 11 5.98 11 7 C8.36 7 5.72 7 3 7 C2.67 8.32 2.34 9.64 2 11 C1.34 11 0.68 11 0 11 C0 7.37 0 3.74 0 0 Z " fill="#B91F1E" transform="translate(316,50)"/>
<path d="M0 0 C1.32 0 2.64 0 4 0 C2.25 4.875 2.25 4.875 0 6 C-5.42307692 6.46153846 -5.42307692 6.46153846 -7.875 4.5 C-8.24625 4.005 -8.6175 3.51 -9 3 C-8.34 3 -7.68 3 -7 3 C-6.67 2.34 -6.34 1.68 -6 1 C-4.35 1.33 -2.7 1.66 -1 2 C-0.67 1.34 -0.34 0.68 0 0 Z " fill="#AF1817" transform="translate(99,58)"/>
<path d="M0 0 C2.31 0 4.62 0 7 0 C7 2.31 7 4.62 7 7 C5.02 7.99 5.02 7.99 3 9 C1.875 5.25 1.875 5.25 3 3 C2.01 3 1.02 3 0 3 C0 2.01 0 1.02 0 0 Z " fill="#B01515" transform="translate(195,55)"/>
<path d="M0 0 C3.16115776 1.36983503 3.9927092 1.9890638 6 5 C6.3125 8.5 6.3125 8.5 6 12 C5.01 12.99 4.02 13.98 3 15 C3 12.03 3 9.06 3 6 C-0.74691447 4.60229416 -0.74691447 4.60229416 -3 6 C-2.67 5.01 -2.34 4.02 -2 3 C-1.34 3 -0.68 3 0 3 C0 2.01 0 1.02 0 0 Z " fill="#265072" transform="translate(43,35)"/>
<path d="M0 0 C0.99 0 1.98 0 3 0 C3 4.62 3 9.24 3 14 C3.66 14.33 4.32 14.66 5 15 C4.01 15 3.02 15 2 15 C1.67 15.66 1.34 16.32 1 17 C-0.89885096 15.10114904 -0.12367506 12.42752097 -0.1328125 9.91015625 C0 8 0 8 1 6 C0.71887936 3.99199544 0.38932033 1.98985949 0 0 Z " fill="#146634" transform="translate(273,22)"/>
<path d="M0 0 C0.99 1.32 1.98 2.64 3 4 C-3.6 4 -10.2 4 -17 4 C-17 3.34 -17 2.68 -17 2 C-11.39 2 -5.78 2 0 2 C0 1.34 0 0.68 0 0 Z " fill="#328CA6" transform="translate(46,58)"/>
<path d="M0 0 C0 0.33 0 0.66 0 1 C-0.65226562 1.02578125 -1.30453125 1.0515625 -1.9765625 1.078125 C-8.08635323 1.42511722 -8.08635323 1.42511722 -13.4375 4.125 C-14.283125 4.74375 -15.12875 5.3625 -16 6 C-16.99 5.67 -17.98 5.34 -19 5 C-19.33 4.34 -19.66 3.68 -20 3 C-13.04983123 -0.99849216 -7.84382203 -1.34884416 0 0 Z " fill="#EDEEEF" transform="translate(43,18)"/>
<path d="M0 0 C0.33 0.66 0.66 1.32 1 2 C4.02934491 2.65772428 4.02934491 2.65772428 7 3 C7 4.98 7 6.96 7 9 C6.34 8.01 5.68 7.02 5 6 C4.401875 6.495 3.80375 6.99 3.1875 7.5 C1 9 1 9 -2 9 C-2 6.36 -2 3.72 -2 1 C-1.34 0.67 -0.68 0.34 0 0 Z " fill="#393939" transform="translate(219,6)"/>
<path d="M0 0 C0.33 0 0.66 0 1 0 C1 7.59 1 15.18 1 23 C0.01 22.67 -0.98 22.34 -2 22 C-2 18.04 -2 14.08 -2 10 C-1.67 10 -1.34 10 -1 10 C-0.67 6.7 -0.34 3.4 0 0 Z " fill="#1F6A3E" transform="translate(214,19)"/>
<path d="M0 0 C0.33 0 0.66 0 1 0 C1 6.6 1 13.2 1 20 C0.01 19.34 -0.98 18.68 -2 18 C-2.27613568 15.24458159 -2.37257625 12.74908898 -2.3125 10 C-2.31572266 9.26265625 -2.31894531 8.5253125 -2.32226562 7.765625 C-2.26707949 2.26707949 -2.26707949 2.26707949 0 0 Z " fill="#226D41" transform="translate(173,23)"/>
<path d="M0 0 C0.99 0.66 1.98 1.32 3 2 C5.60911673 2.36677679 8.19072265 2.50381001 10.8203125 2.65625 C11.53960937 2.7696875 12.25890625 2.883125 13 3 C13.33 3.66 13.66 4.32 14 5 C8.72 5 3.44 5 -2 5 C-1 1 -1 1 0 0 Z " fill="#C7E4D5" transform="translate(122,16)"/>
<path d="M0 0 C2.31 0 4.62 0 7 0 C7 2.64 7 5.28 7 8 C4.37812506 6.95125002 3.20628639 6.35068687 1.75 3.875 C1.5025 3.25625 1.255 2.6375 1 2 C1 3.65 1 5.3 1 7 C0.67 7 0.34 7 0 7 C0 4.69 0 2.38 0 0 Z " fill="#545454" transform="translate(184,7)"/>
<path d="M0 0 C2.31 0 4.62 0 7 0 C7.33 1.98 7.66 3.96 8 6 C7.01 6.66 6.02 7.32 5 8 C4.01 7.01 3.02 6.02 2 5 C2.33 4.34 2.66 3.68 3 3 C2.01 2.67 1.02 2.34 0 2 C0 1.34 0 0.68 0 0 Z " fill="#227041" transform="translate(267,23)"/>
<path d="M0 0 C2.08268593 -0.08126087 4.16628658 -0.13930839 6.25 -0.1875 C7.99023438 -0.23970703 7.99023438 -0.23970703 9.765625 -0.29296875 C13.25252163 0.02287334 14.65749368 0.41976408 17 3 C17 4.32 17 5.64 17 7 C16.01 7 15.02 7 14 7 C14 6.01 14 5.02 14 4 C12.02 4 10.04 4 8 4 C8.99 3.34 9.98 2.68 11 2 C7.37 1.67 3.74 1.34 0 1 C0 0.67 0 0.34 0 0 Z " fill="#3A8155" transform="translate(269,15)"/>
<path d="M0 0 C5.94 0 11.88 0 18 0 C17.01 0.99 16.02 1.98 15 3 C14.67 2.67 14.34 2.34 14 2 C12.65252916 1.76924918 11.29622435 1.58846937 9.9375 1.4375 C8.638125 1.293125 7.33875 1.14875 6 1 C5.67 2.32 5.34 3.64 5 5 C3.68 5.33 2.36 5.66 1 6 C1.33 4.68 1.66 3.36 2 2 C1.34 2 0.68 2 0 2 C0 1.34 0 0.68 0 0 Z " fill="#F8E7E6" transform="translate(5,65)"/>
<path d="M0 0 C0.25 6.625 0.25 6.625 -2 10 C-2 9.34 -2 8.68 -2 8 C-2.99 7.67 -3.98 7.34 -5 7 C-5.33 5.35 -5.66 3.7 -6 2 C-3 0 -3 0 0 0 Z " fill="#277145" transform="translate(299,28)"/>
<path d="M0 0 C1.09054687 0.02320313 2.18109375 0.04640625 3.3046875 0.0703125 C4.40039062 0.08835937 5.49609375 0.10640625 6.625 0.125 C7.46804688 0.14820313 8.31109375 0.17140625 9.1796875 0.1953125 C9.5096875 0.8553125 9.8396875 1.5153125 10.1796875 2.1953125 C1.16437021 4.47102366 1.16437021 4.47102366 -2.9453125 3.3203125 C-3.5640625 2.9490625 -4.1828125 2.5778125 -4.8203125 2.1953125 C-2.8203125 0.1953125 -2.8203125 0.1953125 0 0 Z " fill="#005C22" transform="translate(270.8203125,15.8046875)"/>
<path d="M0 0 C1.65 0 3.3 0 5 0 C5 3.96 5 7.92 5 12 C3.35 11.01 1.7 10.02 0 9 C0.66 8.01 1.32 7.02 2 6 C1.65394389 3.71602968 1.03295481 2.06590963 0 0 Z " fill="#F1F9F5" transform="translate(183,23)"/>
<path d="M0 0 C4.44936709 -0.36075949 4.44936709 -0.36075949 6.8125 1.1875 C8.36678206 3.55982525 8.22537188 5.22041345 8 8 C4.63820226 6.55922954 2.40843732 4.75249979 0 2 C0 1.34 0 0.68 0 0 Z " fill="#D9282F" transform="translate(56,20)"/>
<path d="M0 0 C2.31 0.33 4.62 0.66 7 1 C7 2.66666667 7 4.33333333 7 6 C4 7 4 7 1.8125 6.0625 C1.214375 5.711875 0.61625 5.36125 0 5 C0 3.35 0 1.7 0 0 Z " fill="#7C7C7C" transform="translate(282,74)"/>
<path d="M0 0 C3.875 0.875 3.875 0.875 5 2 C5.04063832 3.66617115 5.042721 5.33388095 5 7 C5.99 7.33 6.98 7.66 8 8 C6.02 8.33 4.04 8.66 2 9 C2 8.34 2 7.68 2 7 C0.68 7 -0.64 7 -2 7 C-1.67 6.01 -1.34 5.02 -1 4 C-0.01 4 0.98 4 2 4 C1.67 3.34 1.34 2.68 1 2 C0.67 1.34 0.34 0.68 0 0 Z " fill="#D18C8B" transform="translate(26,66)"/>
<path d="M0 0 C4.29 0 8.58 0 13 0 C13 0.99 13 1.98 13 3 C8.71 3 4.42 3 0 3 C0 2.01 0 1.02 0 0 Z " fill="#B62C2D" transform="translate(346,47)"/>
<path d="M0 0 C4.29 0 8.58 0 13 0 C13 0.99 13 1.98 13 3 C8.71 3 4.42 3 0 3 C0 2.01 0 1.02 0 0 Z " fill="#B82E2E" transform="translate(254,47)"/>
<path d="M0 0 C0.66 0 1.32 0 2 0 C2 1.98 2 3.96 2 6 C2.99 6 3.98 6 5 6 C5 6.66 5 7.32 5 8 C4.01 8 3.02 8 2 8 C2 9.98 2 11.96 2 14 C1.34 14 0.68 14 0 14 C0 9.38 0 4.76 0 0 Z " fill="#B60000" transform="translate(362,49)"/>
<path d="M0 0 C-1.32 0.33 -2.64 0.66 -4 1 C-3.34 2.65 -2.68 4.3 -2 6 C-2.99 6 -3.98 6 -5 6 C-5 4.35 -5 2.7 -5 1 C-5.33 2.65 -5.66 4.3 -6 6 C-7.32 5.34 -8.64 4.68 -10 4 C-9.625 2.0625 -9.625 2.0625 -9 0 C-5.93109813 -1.53445094 -3.29905734 -0.54984289 0 0 Z " fill="#515151" transform="translate(270,75)"/>
<path d="M0 0 C0.99 0.33 1.98 0.66 3 1 C3 5.95 3 10.9 3 16 C2.34 16 1.68 16 1 16 C0.67 10.72 0.34 5.44 0 0 Z " fill="#D7252D" transform="translate(66,32)"/>
<path d="M0 0 C0.99 0.33 1.98 0.66 3 1 C3 1.99 3 2.98 3 4 C3.99 4.33 4.98 4.66 6 5 C4.6875 7 4.6875 7 3 9 C2.01 9 1.02 9 0 9 C0 6.03 0 3.06 0 0 Z " fill="#F1FAF7" transform="translate(276,27)"/>
<path d="M0 0 C0.125 2.875 0.125 2.875 0 6 C-0.66 6.66 -1.32 7.32 -2 8 C-4.125 7.625 -4.125 7.625 -6 7 C-6 5.68 -6 4.36 -6 3 C-1.82142857 0 -1.82142857 0 0 0 Z " fill="#126532" transform="translate(308,28)"/>
<path d="M0 0 C2.97 0.495 2.97 0.495 6 1 C5.34 2.65 4.68 4.3 4 6 C2.35 5.67 0.7 5.34 -1 5 C-0.67 3.35 -0.34 1.7 0 0 Z " fill="#BC5D5D" transform="translate(40,66)"/>
<path d="M0 0 C-0.57344937 2.86724686 -0.8614515 3.8614515 -3 6 C-6.625 6.125 -6.625 6.125 -10 6 C-7.36056774 2.04085161 -4.85144313 0 0 0 Z " fill="#AF1A1A" transform="translate(289,58)"/>
<path d="M0 0 C1.98 0 3.96 0 6 0 C5.5359375 1.051875 5.5359375 1.051875 5.0625 2.125 C3.96697322 5.08936657 3.43577008 7.87698108 3 11 C2.67 11 2.34 11 2 11 C0.80712589 7.12315913 0 4.08378077 0 0 Z " fill="#D0E5D9" transform="translate(215,23)"/>
<path d="M0 0 C3.375 0.25 3.375 0.25 7 1 C8.4375 3.0625 8.4375 3.0625 9 5 C8.01 5.33 7.02 5.66 6 6 C5.34 5.34 4.68 4.68 4 4 C1.93125966 3.3574765 1.93125966 3.3574765 0 3 C0 2.01 0 1.02 0 0 Z " fill="#AF1919" transform="translate(303,47)"/>
<path d="M0 0 C0.598125 0.350625 1.19625 0.70125 1.8125 1.0625 C1.8125 2.0525 1.8125 3.0425 1.8125 4.0625 C-0.4975 4.0625 -2.8075 4.0625 -5.1875 4.0625 C-5.1875 2.7425 -5.1875 1.4225 -5.1875 0.0625 C-2.1875 -0.9375 -2.1875 -0.9375 0 0 Z " fill="#040A0F" transform="translate(44.1875,55.9375)"/>
<path d="M0 0 C-0.57344937 2.86724686 -0.8614515 3.8614515 -3 6 C-6.625 6.125 -6.625 6.125 -10 6 C-7.36056774 2.04085161 -4.85144313 0 0 0 Z " fill="#AD1C1B" transform="translate(312,58)"/>
<path d="M0 0 C1.84765625 0.33984375 1.84765625 0.33984375 4.0625 0.9375 C5.16271484 1.22947266 5.16271484 1.22947266 6.28515625 1.52734375 C7.13400391 1.76130859 7.13400391 1.76130859 8 2 C7.67 2.99 7.34 3.98 7 5 C5.35 5 3.7 5 2 5 C1.67 4.01 1.34 3.02 1 2 C0.34 1.67 -0.32 1.34 -1 1 C-0.67 0.67 -0.34 0.34 0 0 Z " fill="#F9EEED" transform="translate(241,56)"/>
<path d="M0 0 C0.33 0 0.66 0 1 0 C1 3.96 1 7.92 1 12 C1.66 12 2.32 12 3 12 C3 12.66 3 13.32 3 14 C1.68 13.67 0.36 13.34 -1 13 C-1.02708567 11.39592672 -1.04643483 9.7917215 -1.0625 8.1875 C-1.07410156 7.29417969 -1.08570312 6.40085937 -1.09765625 5.48046875 C-1 3 -1 3 0 0 Z " fill="#00571F" transform="translate(127,25)"/>
<path d="M0 0 C2.58646214 1.29323107 2.63668534 2.25699997 3.5625 4.9375 C4.29822324 7.03793267 5.00401313 9.00802626 6 11 C4.68 11.33 3.36 11.66 2 12 C0.00214565 7.8794254 -0.17835515 4.54805635 0 0 Z " fill="#246A3E" transform="translate(151,24)"/>
<path d="M0 0 C0.33 0 0.66 0 1 0 C1 1.65 1 3.3 1 5 C3.97 5 6.94 5 10 5 C10 5.66 10 6.32 10 7 C6.37 7 2.74 7 -1 7 C-0.67 4.69 -0.34 2.38 0 0 Z " fill="#B10101" transform="translate(317,56)"/>
<path d="M0 0 C1.98 0 3.96 0 6 0 C6.33 1.32 6.66 2.64 7 4 C4.69 4 2.38 4 0 4 C0 2.68 0 1.36 0 0 Z " fill="#F4DAD8" transform="translate(364,50)"/>
<path d="M0 0 C-0.49831724 3.68754757 -1.10067643 5.60490662 -4 8 C-4.66 6.68 -5.32 5.36 -6 4 C-2.25 0 -2.25 0 0 0 Z " fill="#156533" transform="translate(209,28)"/>
<path d="M0 0 C2.64 0 5.28 0 8 0 C8 1.98 8 3.96 8 6 C7.34 5.34 6.68 4.68 6 4 C4.01643517 3.28591666 2.01684563 2.61382258 0 2 C0 1.34 0 0.68 0 0 Z " fill="#05612A" transform="translate(259,22)"/>
<path d="M0 0 C1.65 0 3.3 0 5 0 C4.67 0.66 4.34 1.32 4 2 C4.66 2.66 5.32 3.32 6 4 C5.67 4.99 5.34 5.98 5 7 C3.02 6.34 1.04 5.68 -1 5 C-0.67 3.35 -0.34 1.7 0 0 Z " fill="#227443" transform="translate(122,12)"/>
<path d="M0 0 C0.99 0 1.98 0 3 0 C2.34 2.97 1.68 5.94 1 9 C0.01 8.67 -0.98 8.34 -2 8 C-1.47731534 5.23723823 -0.89130413 2.6739124 0 0 Z " fill="#276383" transform="translate(42,25)"/>
<path d="M0 0 C0.33 0.99 0.66 1.98 1 3 C-2 5 -2 5 -4.5625 4.8125 C-7 4 -7 4 -9 1 C-7.88625 1.020625 -6.7725 1.04125 -5.625 1.0625 C-2.16784079 1.26380718 -2.16784079 1.26380718 0 0 Z " fill="#E5F2EB" transform="translate(164,31)"/>
<path d="M0 0 C2.97 0 5.94 0 9 0 C8.34 1.65 7.68 3.3 7 5 C6.34 4.67 5.68 4.34 5 4 C2.90178785 4.39938767 2.90178785 4.39938767 1 5 C0.67 3.35 0.34 1.7 0 0 Z " fill="#ABABAB" transform="translate(208,7)"/>
<path d="M0 0 C1.65 0 3.3 0 5 0 C4.67 2.31 4.34 4.62 4 7 C2.68 7 1.36 7 0 7 C0 4.69 0 2.38 0 0 Z " fill="#B34748" transform="translate(51,74)"/>
<path d="M0 0 C1.98 0.495 1.98 0.495 4 1 C3.67 2.65 3.34 4.3 3 6 C2.01 6 1.02 6 0 6 C-1.125 2.25 -1.125 2.25 0 0 Z " fill="#EAF6F0" transform="translate(262,25)"/>
<path d="M0 0 C1.98 0.99 3.96 1.98 6 3 C4.375 4.125 4.375 4.125 2 5 C-1.25 4.125 -1.25 4.125 -4 3 C-2.68 2.01 -1.36 1.02 0 0 Z " fill="#D8353B" transform="translate(54,16)"/>
<path d="M0 0 C1.32 0.66 2.64 1.32 4 2 C3.67 3.32 3.34 4.64 3 6 C1.0625 5.6875 1.0625 5.6875 -1 5 C-1.33 4.01 -1.66 3.02 -2 2 C-1.34 2 -0.68 2 0 2 C0 1.34 0 0.68 0 0 Z " fill="#515151" transform="translate(230,8)"/>
<path d="M0 0 C0 0.33 0 0.66 0 1 C-1.65 1.33 -3.3 1.66 -5 2 C-5 2.66 -5 3.32 -5 4 C-5.66 4 -6.32 4 -7 4 C-7 4.66 -7 5.32 -7 6 C-8.32 5.34 -9.64 4.68 -11 4 C-7.65667474 -0.27945633 -5.29105716 -0.4070044 0 0 Z " fill="#B52B2C" transform="translate(198,47)"/>
<path d="M0 0 C2.125 0.375 2.125 0.375 4 1 C4.33 2.32 4.66 3.64 5 5 C1.48283697 5 0.62878252 4.17554415 -2 2 C-1.34 1.34 -0.68 0.68 0 0 Z " fill="#25678F" transform="translate(42,39)"/>
<path d="M0 0 C0.66 0 1.32 0 2 0 C2.66 3.96 3.32 7.92 4 12 C1 10 1 10 0 7 C-0.03954234 4.66700175 -0.04401732 2.33291811 0 0 Z " fill="#085A27" transform="translate(319,29)"/>
<path d="M0 0 C0.99 0.33 1.98 0.66 3 1 C1.515 2.485 1.515 2.485 0 4 C0.99 4 1.98 4 3 4 C2.67 4.99 2.34 5.98 2 7 C0.68 7 -0.64 7 -2 7 C-2.6875 5.1875 -2.6875 5.1875 -3 3 C-1.5625 1.25 -1.5625 1.25 0 0 Z " fill="#1E6C3C" transform="translate(163,26)"/>
<path d="M0 0 C0 1.98 0 3.96 0 6 C-0.99 6 -1.98 6 -3 6 C-3.33 5.01 -3.66 4.02 -4 3 C-5.32 3 -6.64 3 -8 3 C-7 1 -7 1 -5.125 0.375 C-3 0 -3 0 0 0 Z " fill="#484848" transform="translate(259,75)"/>
<path d="M0 0 C2.375 0.1875 2.375 0.1875 5 1 C6.3125 3.5625 6.3125 3.5625 7 6 C5.68 6 4.36 6 3 6 C2.01 4.02 1.02 2.04 0 0 Z " fill="#AD0D0D" transform="translate(125,48)"/>
<path d="M0 0 C2.75 -0.25 2.75 -0.25 6 0 C8.375 2 8.375 2 10 4 C8.68 4.33 7.36 4.66 6 5 C5.67 4.01 5.34 3.02 5 2 C3.35 1.67 1.7 1.34 0 1 C0 0.67 0 0.34 0 0 Z " fill="#B22626" transform="translate(93,47)"/>
<path d="M0 0 C3.375 0.25 3.375 0.25 7 1 C8.4375 3.0625 8.4375 3.0625 9 5 C8.01 5.33 7.02 5.66 6 6 C5.566875 5.38125 5.13375 4.7625 4.6875 4.125 C3.00259517 1.7802755 3.00259517 1.7802755 0 0 Z " fill="#AF2222" transform="translate(280,47)"/>
<path d="M0 0 C1.32 1.32 2.64 2.64 4 4 C4 2.68 4 1.36 4 0 C4.66 0 5.32 0 6 0 C6 1.98 6 3.96 6 6 C3.69 6 1.38 6 -1 6 C-0.67 4.02 -0.34 2.04 0 0 Z " fill="#EFEFEF" transform="translate(259,76)"/>
<path d="M0 0 C2.97 0 5.94 0 9 0 C9 0.66 9 1.32 9 2 C7.35 2 5.7 2 4 2 C3.34 3.65 2.68 5.3 2 7 C0.5393715 4.35261084 0 3.10551666 0 0 Z " fill="#E6F1EB" transform="translate(345,24)"/>
<path d="M0 0 C1.65 0 3.3 0 5 0 C5 1.98 5 3.96 5 6 C4.34 6 3.68 6 3 6 C0 2.53846154 0 2.53846154 0 0 Z " fill="#616161" transform="translate(274,75)"/>
<path d="M0 0 C2.375 0.25 2.375 0.25 5 1 C6.3125 3.0625 6.3125 3.0625 7 5 C4.625 4.75 4.625 4.75 2 4 C0.6875 1.9375 0.6875 1.9375 0 0 Z " fill="#AD1213" transform="translate(369,59)"/>
<path d="M0 0 C0.66 0 1.32 0 2 0 C2.33 1.65 2.66 3.3 3 5 C2.34 5 1.68 5 1 5 C1 7.97 1 10.94 1 14 C0.67 14 0.34 14 0 14 C0 9.38 0 4.76 0 0 Z " fill="#C10203" transform="translate(206,49)"/>
<path d="M0 0 C0.33 0 0.66 0 1 0 C1.33 4.62 1.66 9.24 2 14 C-1 10 -1 10 -1.07421875 7.421875 C-0.94660156 6.54015625 -0.81898438 5.6584375 -0.6875 4.75 C-0.56761719 3.85796875 -0.44773438 2.9659375 -0.32421875 2.046875 C-0.21722656 1.37140625 -0.11023438 0.6959375 0 0 Z " fill="#126533" transform="translate(240,24)"/>
<path d="M0 0 C0 2.31 0 4.62 0 7 C-1.65 5.35 -3.3 3.7 -5 2 C-2 0 -2 0 0 0 Z " fill="#E9F7F0" transform="translate(387,28)"/>
<path d="M0 0 C0.99 0.33 1.98 0.66 3 1 C3.1875 3.375 3.1875 3.375 3 6 C2.01 6.66 1.02 7.32 0 8 C-0.79953138 4.71303767 -1.09658936 3.28976808 0 0 Z " fill="#146935" transform="translate(267,25)"/>
<path d="M0 0 C2.02907167 3.3146667 2.12742133 5.4315979 1.625 9.25 C1.51414062 10.14203125 1.40328125 11.0340625 1.2890625 11.953125 C1.19367188 12.62859375 1.09828125 13.3040625 1 14 C0.67 14 0.34 14 0 14 C-0.19532961 12.2300132 -0.38098882 10.45895721 -0.5625 8.6875 C-0.66691406 7.70136719 -0.77132813 6.71523438 -0.87890625 5.69921875 C-1 3 -1 3 0 0 Z " fill="#2D7B4D" transform="translate(354,23)"/>
<path d="M0 0 C2.31 0 4.62 0 7 0 C7 1.65 7 3.3 7 5 C1.125 2.25 1.125 2.25 0 0 Z " fill="#C3E0CE" transform="translate(105,23)"/>
<path d="M0 0 C2.31 0 4.62 0 7 0 C7 1.65 7 3.3 7 5 C1.125 2.25 1.125 2.25 0 0 Z " fill="#C1DECE" transform="translate(335,23)"/>
<path d="M0 0 C2.31 0 4.62 0 7 0 C6.67 1.32 6.34 2.64 6 4 C4.02 3.34 2.04 2.68 0 2 C0 1.34 0 0.68 0 0 Z " fill="#09642D" transform="translate(98,22)"/>
<path d="M0 0 C1.32 0.33 2.64 0.66 4 1 C2.9375 2.5 2.9375 2.5 1 4 C-2.6875 4.1875 -2.6875 4.1875 -6 4 C-5.67 3.34 -5.34 2.68 -5 2 C-3.35 2 -1.7 2 0 2 C0 1.34 0 0.68 0 0 Z " fill="#F7E5E5" transform="translate(44,70)"/>
<path d="M0 0 C0.66 0 1.32 0 2 0 C2 1.98 2 3.96 2 6 C0.35 6 -1.3 6 -3 6 C-1.125 1.125 -1.125 1.125 0 0 Z " fill="#B13233" transform="translate(36,66)"/>
<path d="M0 0 C1.98 0.495 1.98 0.495 4 1 C4 2.65 4 4.3 4 6 C3.34 6 2.68 6 2 6 C2 5.34 2 4.68 2 4 C1.34 4 0.68 4 0 4 C-0.33 4.66 -0.66 5.32 -1 6 C-0.67 4.02 -0.34 2.04 0 0 Z " fill="#AD2728" transform="translate(46,66)"/>
<path d="M0 0 C3 3.625 3 3.625 3 7 C1.0625 6.6875 1.0625 6.6875 -1 6 C-1.33 5.01 -1.66 4.02 -2 3 C-1.34 2.01 -0.68 1.02 0 0 Z " fill="#AF1717" transform="translate(182,57)"/>
<path d="M0 0 C0.66 0.33 1.32 0.66 2 1 C2 3.64 2 6.28 2 9 C1.01 9.33 0.02 9.66 -1 10 C-0.67 6.7 -0.34 3.4 0 0 Z " fill="#B70102" transform="translate(234,52)"/>
<path d="M0 0 C3.37462715 0.54723683 5.08235 1.0549 8 3 C2.25 4.125 2.25 4.125 0 3 C0 2.01 0 1.02 0 0 Z " fill="#F3DDDC" transform="translate(243,50)"/>
<path d="M0 0 C1.00289062 0.10183594 2.00578125 0.20367188 3.0390625 0.30859375 C3.80992188 0.39238281 4.58078125 0.47617187 5.375 0.5625 C5.375 0.8925 5.375 1.2225 5.375 1.5625 C3.58491533 1.78401549 1.79281838 1.98932213 0 2.1875 C-0.99773438 2.30351562 -1.99546875 2.41953125 -3.0234375 2.5390625 C-3.88195313 2.54679687 -4.74046875 2.55453125 -5.625 2.5625 C-6.285 1.9025 -6.945 1.2425 -7.625 0.5625 C-4.89657939 -0.80171031 -3.01546682 -0.31557211 0 0 Z " fill="#DDDEE2" transform="translate(37.625,17.4375)"/>
<path d="M0 0 C1.32 0.33 2.64 0.66 4 1 C3.01 1.495 3.01 1.495 2 2 C1.27840576 3.64363134 0.60648579 5.31050386 0 7 C-0.99 6.01 -1.98 5.02 -3 4 C-2.01 2.68 -1.02 1.36 0 0 Z " fill="#0A612C" transform="translate(120,13)"/>
<path d="M0 0 C0.66 0 1.32 0 2 0 C2 0.66 2 1.32 2 2 C2.66 2 3.32 2 4 2 C4 2.99 4 3.98 4 5 C2.35 5.33 0.7 5.66 -1 6 C-1.042721 4.33388095 -1.04063832 2.66617115 -1 1 C-0.67 0.67 -0.34 0.34 0 0 Z " fill="#B73535" transform="translate(35,75)"/>
<path d="M0 0 C0.99 0 1.98 0 3 0 C2.67 0.66 2.34 1.32 2 2 C2.33 2.33 2.66 2.66 3 3 C3 3.99 3 4.98 3 6 C1.68 6 0.36 6 -1 6 C-1.042721 4.33388095 -1.04063832 2.66617115 -1 1 C-0.67 0.67 -0.34 0.34 0 0 Z " fill="#A93232" transform="translate(58,66)"/>
<path d="M0 0 C0.33 0.66 0.66 1.32 1 2 C1.66 2.33 2.32 2.66 3 3 C2.34 3.66 1.68 4.32 1 5 C0.30251417 6.31747324 -0.36959957 7.64914193 -1 9 C-1.625 5.625 -1.625 5.625 -2 2 C-1.34 1.34 -0.68 0.68 0 0 Z " fill="#B01011" transform="translate(224,48)"/>
<path d="M0 0 C0.99 0.33 1.98 0.66 3 1 C2.67 4.3 2.34 7.6 2 11 C1.67 11 1.34 11 1 11 C1 8.69 1 6.38 1 4 C0.34 4 -0.32 4 -1 4 C-0.67 2.68 -0.34 1.36 0 0 Z " fill="#367E52" transform="translate(320,25)"/>
<path d="M0 0 C1.98 0 3.96 0 6 0 C6 1.32 6 2.64 6 4 C4.02 3.34 2.04 2.68 0 2 C0 1.34 0 0.68 0 0 Z " fill="#D3E6DB" transform="translate(267,23)"/>
<path d="M0 0 C0.33 0.66 0.66 1.32 1 2 C3.02463255 2.65213292 3.02463255 2.65213292 5 3 C3.02 3.99 1.04 4.98 -1 6 C-1.66 5.01 -2.32 4.02 -3 3 C-2.01 2.01 -1.02 1.02 0 0 Z " fill="#136534" transform="translate(324,21)"/>
<path d="M0 0 C0.75 1.75 0.75 1.75 1 4 C-0.9375 6.25 -0.9375 6.25 -3 8 C-3.33 7.01 -3.66 6.02 -4 5 C-2.0625 2.3125 -2.0625 2.3125 0 0 Z " fill="#3A8CA6" transform="translate(29,21)"/>
<path d="M0 0 C0.99 0 1.98 0 3 0 C3.33 0.66 3.66 1.32 4 2 C6.01669827 3.13350534 6.01669827 3.13350534 8 4 C5.69 4.33 3.38 4.66 1 5 C0.67 3.35 0.34 1.7 0 0 Z " fill="#B01C1B" transform="translate(239,58)"/>
<path d="M0 0 C0.99 1.32 1.98 2.64 3 4 C0.03 4 -2.94 4 -6 4 C-5.67 3.34 -5.34 2.68 -5 2 C-3.35 2 -1.7 2 0 2 C0 1.34 0 0.68 0 0 Z " fill="#2E678B" transform="translate(46,58)"/>
<path d="M0 0 C1.15941038 3.47823115 0.70820884 5.45895578 0 9 C-0.66 9 -1.32 9 -2 9 C-2.125 5.625 -2.125 5.625 -2 2 C-1.34 1.34 -0.68 0.68 0 0 Z " fill="#BA0000" transform="translate(133,54)"/>
<path d="M0 0 C1.2065625 0.0309375 1.2065625 0.0309375 2.4375 0.0625 C2.7675 0.7225 3.0975 1.3825 3.4375 2.0625 C1.1275 2.7225 -1.1825 3.3825 -3.5625 4.0625 C-3.5625 0.08689024 -3.5625 0.08689024 0 0 Z " fill="#AB0404" transform="translate(280.5625,47.9375)"/>
<path d="M0 0 C1.65 0 3.3 0 5 0 C5 2.31 5 4.62 5 7 C1.125 2.25 1.125 2.25 0 0 Z " fill="#C9E4D5" transform="translate(183,23)"/>
<path d="M0 0 C0.66 0.33 1.32 0.66 2 1 C1.67 1.99 1.34 2.98 1 4 C1.99 3.67 2.98 3.34 4 3 C3.67 3.99 3.34 4.98 3 6 C1.68 5.67 0.36 5.34 -1 5 C-0.67 3.35 -0.34 1.7 0 0 Z " fill="#B13D3C" transform="translate(24,75)"/>
<path d="M0 0 C-1 1 -1 1 -4.5625 1.0625 C-5.696875 1.041875 -6.83125 1.02125 -8 1 C-8.33 0.34 -8.66 -0.32 -9 -1 C-3.375 -2.25 -3.375 -2.25 0 0 Z " fill="#AC0606" transform="translate(250,63)"/>
<path d="M0 0 C1.32 0.33 2.64 0.66 4 1 C4 1.66 4 2.32 4 3 C4.66 3.33 5.32 3.66 6 4 C5.01 4 4.02 4 3 4 C2.67 4.66 2.34 5.32 2 6 C1.34 5.34 0.68 4.68 0 4 C0 2.68 0 1.36 0 0 Z " fill="#B72D2C" transform="translate(239,50)"/>
<path d="M0 0 C1.98 0 3.96 0 6 0 C6 0.66 6 1.32 6 2 C3.69 2.66 1.38 3.32 -1 4 C-0.67 2.68 -0.34 1.36 0 0 Z " fill="#AD0302" transform="translate(241,48)"/>
<path d="M0 0 C2.125 0.375 2.125 0.375 4 1 C4 2.32 4 3.64 4 5 C2.02 4.01 0.04 3.02 -2 2 C-1.34 1.34 -0.68 0.68 0 0 Z " fill="#045C26" transform="translate(302,25)"/>
<path d="M0 0 C0 1.98 0 3.96 0 6 C-1.65 5.01 -3.3 4.02 -5 3 C-2.25 0 -2.25 0 0 0 Z " fill="#EDF6F2" transform="translate(298,28)"/>
<path d="M0 0 C2.5 0.3125 2.5 0.3125 5 1 C5.33 1.66 5.66 2.32 6 3 C5.0625 5.125 5.0625 5.125 4 7 C3.87625 6.071875 3.87625 6.071875 3.75 5.125 C3.18741541 2.81562433 3.18741541 2.81562433 0.9375 1.75 C0.298125 1.5025 -0.34125 1.255 -1 1 C-0.67 0.67 -0.34 0.34 0 0 Z " fill="#CCE6D8" transform="translate(205,24)"/>
<path d="M0 0 C1.32 0.33 2.64 0.66 4 1 C4 2.65 4 4.3 4 6 C3.01 5.67 2.02 5.34 1 5 C0.67 3.35 0.34 1.7 0 0 Z " fill="#DF1F26" transform="translate(60,22)"/>
<path d="M0 0 C1.98 0.99 3.96 1.98 6 3 C6 3.33 6 3.66 6 4 C3.36 4 0.72 4 -2 4 C-1.34 2.68 -0.68 1.36 0 0 Z " fill="#F6FDFA" transform="translate(122,16)"/>
<path d="M0 0 C0.66 0.66 1.32 1.32 2 2 C-3.41538462 3.23076923 -3.41538462 3.23076923 -6.375 2.0625 C-6.91125 1.711875 -7.4475 1.36125 -8 1 C-5.23749964 -0.38125018 -3.05268901 -0.19079306 0 0 Z " fill="#0B612C" transform="translate(275,17)"/>
</svg>
