<?xml version="1.0" encoding="UTF-8"?>
<svg version="1.1" xmlns="http://www.w3.org/2000/svg" width="365" height="102">
<path d="M0 0 C120.45 0 240.9 0 365 0 C365 33.66 365 67.32 365 102 C244.55 102 124.1 102 0 102 C0 68.34 0 34.68 0 0 Z " fill="#FEFEFE" transform="translate(0,0)"/>
<path d="M0 0 C5.94 0 11.88 0 18 0 C20.55114354 6.02980264 23.09613882 12.06214891 25.63549805 18.09692383 C26.50002697 20.14906553 27.36622494 22.20050494 28.23413086 24.2512207 C29.48211208 27.20079968 30.72404825 30.15286103 31.96484375 33.10546875 C32.35341049 34.02023483 32.74197723 34.93500092 33.14231873 35.87748718 C33.50261673 36.73800186 33.86291473 37.59851654 34.23413086 38.48510742 C34.55167831 39.23789474 34.86922577 39.99068207 35.19639587 40.76628113 C36 43 36 43 37 48 C30.73 48 24.46 48 18 48 C15.03 40.74 12.06 33.48 9 26 C6.75818134 28.98909154 5.51529651 30.77999535 4.2109375 34.07421875 C3.90929687 34.82380859 3.60765625 35.57339844 3.296875 36.34570312 C2.99265625 37.11849609 2.6884375 37.89128906 2.375 38.6875 C-0.88523192 46.88523192 -0.88523192 46.88523192 -2 48 C-4.86267567 48.07325168 -7.700719 48.09238205 -10.5625 48.0625 C-11.36880859 48.05798828 -12.17511719 48.05347656 -13.00585938 48.04882812 C-15.00393756 48.03700518 -17.00197783 48.01906914 -19 48 C-18.40689303 44.62399376 -17.56539852 41.64104964 -16.23413086 38.48510742 C-15.87383286 37.62459274 -15.51353485 36.76407806 -15.14231873 35.87748718 C-14.55946861 34.50533806 -14.55946861 34.50533806 -13.96484375 33.10546875 C-13.56672989 32.15811356 -13.16861603 31.21075836 -12.75843811 30.23469543 C-11.48915501 27.21710429 -10.21342202 24.20228919 -8.9375 21.1875 C-8.07444278 19.13885171 -7.21180762 17.09002557 -6.34960938 15.04101562 C-4.23796003 10.02526878 -2.12052297 5.01200139 0 0 Z " fill="#105080" transform="translate(38,26)"/>
<path d="M0 0 C25.54545455 0 25.54545455 0 31.375 5.0625 C33.70943356 9.28243758 33.66142122 13.27006917 33 18 C31.9765625 20.30859375 31.9765625 20.30859375 31 22 C31.66 22.78375 32.32 23.5675 33 24.375 C35.84067507 28.65630314 35.79890226 33.03712235 35 38 C32.76975719 42.54308721 30.49229774 44.77445433 26 47 C23.0456543 47.34057617 23.0456543 47.34057617 19.82421875 47.29296875 C18.25933716 47.28172974 18.25933716 47.28172974 16.6628418 47.27026367 C15.350979 47.24295166 14.03911621 47.21563965 12.6875 47.1875 C8.500625 47.125625 4.31375 47.06375 0 47 C0 31.49 0 15.98 0 0 Z " fill="#0F4F7F" transform="translate(120,23)"/>
<path d="M0 0 C3.3 0 6.6 0 10 0 C12.65895971 2.66844471 14.19461331 4.60217885 16.0625 7.75 C17.06732137 9.30708087 18.07384692 10.86306324 19.08203125 12.41796875 C19.56881348 13.19188965 20.0555957 13.96581055 20.55712891 14.76318359 C22.63441438 17.98350331 24.91843487 21.02392447 27.25 24.0625 C28.4875 25.691875 29.725 27.32125 31 29 C31.33 19.43 31.66 9.86 32 0 C35.3 0 38.6 0 42 0 C42 15.51 42 31.02 42 47 C32 47 32 47 28.4609375 43.66796875 C27.39903136 42.19794197 26.37083322 40.70306576 25.375 39.1875 C24.86710937 38.46884766 24.35921875 37.75019531 23.8359375 37.00976562 C22.20052213 34.68952007 20.60097206 32.34414405 19 30 C16.36 26.37 13.72 22.74 11 19 C10.67 28.24 10.34 37.48 10 47 C6.7 47 3.4 47 0 47 C0 31.49 0 15.98 0 0 Z " fill="#104F7F" transform="translate(164,23)"/>
<path d="M0 0 C0 10.23 0 20.46 0 31 C2.31 31 4.62 31 7 31 C7 33.64 7 36.28 7 39 C4.69 39 2.38 39 0 39 C0 41.64 0 44.28 0 47 C-3.3 47 -6.6 47 -10 47 C-10 44.36 -10 41.72 -10 39 C-11.89685547 39.06960937 -11.89685547 39.06960937 -13.83203125 39.140625 C-15.49216391 39.17814212 -17.15232208 39.21454235 -18.8125 39.25 C-20.06256836 39.30027344 -20.06256836 39.30027344 -21.33789062 39.3515625 C-27.45561496 39.4498392 -27.45561496 39.4498392 -30.13671875 37.234375 C-31.17727279 34.54117632 -30.91909096 33.69102083 -30 31 C-28.8359375 29.09985352 -28.8359375 29.09985352 -27.375 27.12890625 C-26.83770264 26.39526855 -26.30040527 25.66163086 -25.74682617 24.90576172 C-25.17037354 24.13248535 -24.5939209 23.35920898 -24 22.5625 C-19.01774215 15.87597235 -19.01774215 15.87597235 -14.41796875 8.92578125 C-14.03576172 8.32113037 -13.65355469 7.71647949 -13.25976562 7.09350586 C-12.25164237 5.47780013 -11.2713014 3.84485388 -10.29296875 2.2109375 C-8 0 -8 0 0 0 Z " fill="#0E4E7E" transform="translate(104,23)"/>
<path d="M0 0 C11.22 0 22.44 0 34 0 C34 2.97 34 5.94 34 9 C30.04 9 26.08 9 22 9 C22 21.54 22 34.08 22 47 C18.7 47 15.4 47 12 47 C12 34.46 12 21.92 12 9 C8.04 9 4.08 9 0 9 C0 6.03 0 3.06 0 0 Z " fill="#0E4E7E" transform="translate(300,23)"/>
<path d="M0 0 C11.22 0 22.44 0 34 0 C34 2.97 34 5.94 34 9 C30.04 9 26.08 9 22 9 C22 21.54 22 34.08 22 47 C18.7 47 15.4 47 12 47 C12 34.46 12 21.92 12 9 C8.04 9 4.08 9 0 9 C0 6.03 0 3.06 0 0 Z " fill="#115080" transform="translate(213,23)"/>
<path d="M0 0 C5.94 0 11.88 0 18 0 C18 2.97 18 5.94 18 9 C16.68 9 15.36 9 14 9 C14 18.9 14 28.8 14 39 C15.32 39 16.64 39 18 39 C18 41.64 18 44.28 18 47 C12.39 47 6.78 47 1 47 C1 44.36 1 41.72 1 39 C1.99 39 2.98 39 4 39 C4 29.1 4 19.2 4 9 C2.68 9 1.36 9 0 9 C0 6.03 0 3.06 0 0 Z " fill="#135281" transform="translate(275,23)"/>
<path d="M0 0 C2.29141286 -0.05384521 4.58318188 -0.09272087 6.875 -0.125 C8.78925781 -0.15980469 8.78925781 -0.15980469 10.7421875 -0.1953125 C14 0 14 0 16 2 C16.549208 7.16255518 16.549208 7.16255518 14.8984375 9.6796875 C12.06285955 11.65175612 9.71603691 11.28859516 6.3125 11.1875 C4.54326172 11.14689453 4.54326172 11.14689453 2.73828125 11.10546875 C1.83464844 11.07066406 0.93101562 11.03585938 0 11 C0 7.37 0 3.74 0 0 Z " fill="#F7F9FB" transform="translate(130,50)"/>
<path d="M0 0 C1.93719378 -0.05406122 3.87481921 -0.09282025 5.8125 -0.125 C6.89144531 -0.14820312 7.97039062 -0.17140625 9.08203125 -0.1953125 C12 0 12 0 15 2 C15.3125 4.5 15.3125 4.5 15 7 C13 9 13 9 9.9609375 9.1953125 C8.77757812 9.17210937 7.59421875 9.14890625 6.375 9.125 C5.18648437 9.10695313 3.99796875 9.08890625 2.7734375 9.0703125 C1.85820312 9.04710937 0.94296875 9.02390625 0 9 C0 6.03 0 3.06 0 0 Z " fill="#EAEFF3" transform="translate(130,32)"/>
<path d="M0 0 C0.33 0 0.66 0 1 0 C1 4.29 1 8.58 1 13 C-1.97 13 -4.94 13 -8 13 C-7.50628906 12.22914062 -7.01257813 11.45828125 -6.50390625 10.6640625 C-5.86324219 9.66117188 -5.22257812 8.65828125 -4.5625 7.625 C-3.92441406 6.62726562 -3.28632812 5.62953125 -2.62890625 4.6015625 C-1.03100789 2.14169479 -1.03100789 2.14169479 0 0 Z " fill="#F1F4F7" transform="translate(93,41)"/>
</svg>
